<?xml version="1.0" encoding="utf-8"?>
<svg width="48px" height="48px" viewBox="0 0 48 48" version="1.1" xmlns:xlink="http://www.w3.org/1999/xlink" xmlns="http://www.w3.org/2000/svg">
  <desc>Created with Lunacy</desc>
  <defs>
    <rect width="48" height="48" id="artboard_1" />
    <clipPath id="clip_1">
      <use xlink:href="#artboard_1" clip-rule="evenodd" />
    </clipPath>
  </defs>
  <g id="Logo" clip-path="url(#clip_1)">
    <use xlink:href="#artboard_1" stroke="none" fill="#FFFFFF" fill-opacity="0" />
    <g id="Logo">
      <g id="E" fill="#FFFFFF" transform="translate(18.75476 5.999992)">
        <path d="M3.96 5.4L10.296 5.4L10.296 7.92L10.296 9.36L3.96 9.36L3.96 14.076L9 14.076L9 14.796L9 17.316L9 18.036L3.96 18.036L3.96 26.64L10.296 26.64L10.296 28.08L10.296 30.6L3.96 30.6L0 30.6L0 27.972L0 6.732L0 5.4L3.96 5.4Z" />
      </g>
      <g id="{" fill="#AF6365">
        <path d="M0.15674 25.968L0.15674 25.008L0.15674 21.648L0.15674 20.688L1.11674 20.688L1.88474 20.688L2.84474 20.688L2.84474 17.376L2.84474 16.416L2.84474 11.952Q2.84474 9.936 4.23674 8.568Q5.62874 7.2 7.64474 7.2L7.88474 7.2L10.5727 7.2L11.5327 7.2L11.5327 8.16L11.5327 11.52L11.5327 12.48L10.5727 12.48L9.56474 12.48L8.12474 12.48L8.12474 21.168Q8.12474 21.456 8.12474 21.72Q8.12474 21.984 8.02874 22.272L7.98074 22.464L7.83674 22.656Q7.54874 22.992 7.21274 23.28Q7.40474 23.424 7.54874 23.592Q7.69274 23.76 7.83674 23.952L7.93274 24.096L7.98074 24.288Q8.12474 24.864 8.12474 25.488L8.12474 35.52L10.5727 35.52L11.5327 35.52L11.5327 36.48L11.5327 39.84L11.5327 40.8L10.5727 40.8L7.64474 40.8L7.21274 40.8L7.16474 40.8L7.11674 40.8Q5.29274 40.56 4.09274 39.216Q2.84474 37.872 2.84474 36L2.84474 28.656L2.84474 27.696L2.84474 25.968L1.88474 25.968L1.11674 25.968L0.15674 25.968Z" />
      </g>
      <g id="{" fill="#AF6365" transform="matrix(-1 0 0 1 48 0)">
        <path d="M0.15674 25.968L0.15674 25.008L0.15674 21.648L0.15674 20.688L1.11674 20.688L1.88474 20.688L2.84474 20.688L2.84474 17.376L2.84474 16.416L2.84474 11.952Q2.84474 9.936 4.23674 8.568Q5.62874 7.2 7.64474 7.2L7.88474 7.2L10.5727 7.2L11.5327 7.2L11.5327 8.16L11.5327 11.52L11.5327 12.48L10.5727 12.48L9.56474 12.48L8.12474 12.48L8.12474 21.168Q8.12474 21.456 8.12474 21.72Q8.12474 21.984 8.02874 22.272L7.98074 22.464L7.83674 22.656Q7.54874 22.992 7.21274 23.28Q7.40474 23.424 7.54874 23.592Q7.69274 23.76 7.83674 23.952L7.93274 24.096L7.98074 24.288Q8.12474 24.864 8.12474 25.488L8.12474 35.52L10.5727 35.52L11.5327 35.52L11.5327 36.48L11.5327 39.84L11.5327 40.8L10.5727 40.8L7.64474 40.8L7.21274 40.8L7.16474 40.8L7.11674 40.8Q5.29274 40.56 4.09274 39.216Q2.84474 37.872 2.84474 36L2.84474 28.656L2.84474 27.696L2.84474 25.968L1.88474 25.968L1.11674 25.968L0.15674 25.968Z" />
      </g>
    </g>
  </g>
</svg>