<?xml version="1.0" encoding="UTF-8" standalone="no"?><!DOCTYPE svg PUBLIC "-//W3C//DTD SVG 1.1//EN" "http://www.w3.org/Graphics/SVG/1.1/DTD/svg11.dtd"><svg width="100%" height="100%" viewBox="0 0 1180 660" version="1.1" xmlns="http://www.w3.org/2000/svg" xmlns:xlink="http://www.w3.org/1999/xlink" xml:space="preserve" xmlns:serif="http://www.serif.com/" style="fill-rule:evenodd;clip-rule:evenodd;stroke-linecap:round;stroke-linejoin:round;stroke-miterlimit:1.5;"><rect x="0" y="0" width="1180" height="660" style="fill:#323d43;"/><path id="Clip-Under" serif:id="Clip Under" d="M379.5,248.242c0,-10.141 -8.234,-18.375 -18.375,-18.375l-36.75,0c-10.141,0 -18.375,8.234 -18.375,18.375l0,117.929c0,2.04 1.656,3.696 3.696,3.696l66.129,0c2.028,0 3.675,-1.647 3.675,-3.675l0,-117.95Z" style="fill:#4b575d;"/><path id="Bill" d="M447.75,248.927c0,-3.759 -3.051,-6.81 -6.809,-6.81l-196.382,0c-3.758,0 -6.809,3.051 -6.809,6.81l0,110.631c0,3.758 3.051,6.809 6.809,6.809l196.382,0c3.758,0 6.809,-3.051 6.809,-6.809l0,-110.631Z" style="fill:#69f0ae;"/><clipPath id="_clip1"><path d="M447.75,248.927c0,-3.759 -3.051,-6.81 -6.809,-6.81l-196.382,0c-3.758,0 -6.809,3.051 -6.809,6.81l0,110.631c0,3.758 3.051,6.809 6.809,6.809l196.382,0c3.758,0 6.809,-3.051 6.809,-6.809l0,-110.631Z"/></clipPath><g clip-path="url(#_clip1)"><rect x="246.5" y="250.867" width="192.5" height="106.75" style="fill:none;stroke:#17e87f;stroke-width:3.5px;"/><ellipse cx="342.75" cy="304.242" rx="36.75" ry="37.625" style="fill:#18e77f;"/></g><path id="Clip-Over" serif:id="Clip Over" d="M365.625,270.992c0,-6.278 -5.097,-11.375 -11.375,-11.375l-22.75,0c-6.278,0 -11.375,5.097 -11.375,11.375l0,98.875l45.5,0l0,-98.875Z" style="fill:#4f5b62;"/><path id="Clip-Over1" serif:id="Clip Over" d="M365.5,270.992c0,-6.278 -5.097,-11.375 -11.375,-11.375l-11.375,0l0,110.25l22.75,0l0,-98.875Z" style="fill:#525e66;"/><text x="481.281px" y="330px" style="font-family:'Roboto-Light', 'Roboto';font-weight:300;font-size:96px;fill:#fff;">Mone<tspan x="719.828px " y="330px ">y</tspan> Clip</text><text x="225.781px" y="436.867px" style="font-family:'Roboto-Light', 'Roboto';font-weight:300;font-size:36px;fill:#fff;">Secur<tspan x="315.799px " y="436.867px ">e</tspan>ly tr<tspan x="391.297px " y="436.867px ">a</tspan>ck spending acr<tspan x="658.221px " y="436.867px ">o</tspan>ss y<tspan x="740.434px " y="436.867px ">o</tspan>ur accounts.</text></svg>