<?xml version="1.0" encoding="UTF-8" standalone="no"?><!DOCTYPE svg PUBLIC "-//W3C//DTD SVG 1.1//EN" "http://www.w3.org/Graphics/SVG/1.1/DTD/svg11.dtd"><svg width="100%" height="100%" viewBox="0 0 1180 660" version="1.1" xmlns="http://www.w3.org/2000/svg" xmlns:xlink="http://www.w3.org/1999/xlink" xml:space="preserve" xmlns:serif="http://www.serif.com/" style="fill-rule:evenodd;clip-rule:evenodd;stroke-linejoin:round;stroke-miterlimit:1.41421;"><rect x="0" y="0" width="1180" height="660" style="fill:url(#_Linear1);"/><g><ellipse cx="244.984" cy="330" rx="109.954" ry="110.25" style="fill:#ffd95b;"/><g transform="matrix(9.73904,0,0,9.73904,-1031.95,-825.993)"><text x="127.881px" y="122.885px" style="font-family:'KohinoorTelugu-Bold', 'Kohinoor Telugu';font-weight:700;font-size:12px;fill:#fff;">$</text><path d="M132.134,112.794l0.029,0.006l0.028,0.011l0.026,0.014l0.024,0.018l0.021,0.021l0.017,0.024l0.014,0.027l0.01,0.028l0.005,0.029l0.002,0.03l-0.032,1.361l0.017,0.004l0.027,0.006l0.027,0.006l0.026,0.006l0.026,0.006l0.026,0.007l0.025,0.006l0.026,0.007l0.025,0.007l0.025,0.006l0.024,0.007l0.025,0.008l0.024,0.007l0.024,0.007l0.024,0.008l0.023,0.007l0.024,0.008l0.023,0.008l0.023,0.007l0.023,0.008l0.022,0.008l0.023,0.008l0.022,0.009l0.021,0.008l0.022,0.008l0.022,0.009l0.021,0.008l0.021,0.009l0.021,0.009l0.02,0.008l0.02,0.009l0.021,0.009l0.02,0.009l0.019,0.009l0.02,0.009l0.019,0.009l0.019,0.009l0.019,0.009l0.019,0.01l0.018,0.009l0.018,0.009l0.018,0.01l0.018,0.009l0.018,0.01l0.017,0.009l0.018,0.009l0.017,0.01l0.016,0.01l0.017,0.009l0.016,0.01l0.017,0.009l0.016,0.01l0.015,0.009l0.031,0.02l0.03,0.019l0.03,0.019l0.028,0.019l0.028,0.019l0.027,0.019l0.026,0.019l0.025,0.019l0.025,0.019l0.024,0.018l0.011,0.009l0.023,0.018l0.022,0.018l0.021,0.018l0.02,0.018l0.02,0.017l0.019,0.017l0.018,0.016l0.017,0.017l0.017,0.016l0.016,0.015l0.015,0.015l0.014,0.015l0.014,0.014l0.013,0.014l0.012,0.014l0.012,0.012l0.011,0.013l0.01,0.012l0.01,0.011l0.009,0.011l0.008,0.011l0.008,0.01l0.013,0.017l0.016,0.025l0.012,0.028l0.008,0.03l0.004,0.03l-0.001,0.031l-0.006,0.03l-0.01,0.028l-0.014,0.028l-0.017,0.024l-1.044,1.236l-0.02,0.021l-0.022,0.017l-0.025,0.014l-0.026,0.011l-0.027,0.007l-0.028,0.003l-0.028,-0.001l-0.028,-0.004l-0.027,-0.009l-0.026,-0.012l-0.024,-0.015l-0.021,-0.018l-0.016,-0.016l-0.015,-0.015l-0.016,-0.015l-0.016,-0.015l-0.016,-0.015l-0.016,-0.014l-0.017,-0.015l-0.017,-0.015l-0.017,-0.014l-0.017,-0.015l-0.018,-0.014l-0.018,-0.015l-0.018,-0.014l-0.018,-0.014l-0.019,-0.014l-0.019,-0.014l-0.019,-0.014l-0.019,-0.014l-0.019,-0.013l-0.02,-0.013l-0.02,-0.014l-0.02,-0.013l-0.021,-0.012l-0.02,-0.013l-0.021,-0.012l-0.021,-0.013l-0.011,-0.006l-0.01,-0.006l-0.011,-0.006l-0.011,-0.006l-0.011,-0.006l-0.01,-0.005l-0.011,-0.006l-0.011,-0.006l-0.011,-0.005l-0.011,-0.006l-0.011,-0.006l-0.012,-0.005l-0.011,-0.005l-0.011,-0.006l-0.011,-0.005l-0.012,-0.005l-0.011,-0.005l-0.012,-0.005l-0.011,-0.006l-0.012,-0.004l-0.011,-0.005l-0.012,-0.005l-0.012,-0.005l-0.011,-0.005l-0.012,-0.004l-0.012,-0.005l-0.012,-0.004l-0.012,-0.005l-0.012,-0.004l-0.012,-0.004l-0.012,-0.004l-0.012,-0.005l-0.012,-0.004l-0.012,-0.004l-0.013,-0.003l-0.012,-0.004l-0.012,-0.004l-0.013,-0.004l-0.012,-0.003l-0.013,-0.004l-0.012,-0.003l-0.013,-0.003l-0.012,-0.004l-0.013,-0.003l-0.013,-0.003l-0.012,-0.003l-0.013,-0.003l-0.013,-0.003l-0.013,-0.002l-0.013,-0.003l-0.013,-0.003l-0.013,-0.002l-0.013,-0.002l-0.013,-0.003l-0.013,-0.002l-0.014,-0.002l-0.013,-0.002l-0.013,-0.002l-0.013,-0.002l-0.014,-0.001l-0.013,-0.002l-0.014,-0.001l-0.013,-0.002l-0.014,-0.001l-0.014,-0.001l-0.013,-0.001l-0.014,-0.001l-0.014,-0.001l-0.013,-0.001l-0.014,-0.001l-0.014,-0.001l-0.014,0l-0.014,0l-0.014,-0.001l-0.014,0l-0.014,0l-0.013,0l-0.013,0l-0.013,0.001l-0.012,0l-0.013,0l-0.012,0.001l-0.012,0.001l-0.012,0l-0.012,0.001l-0.012,0.001l-0.011,0.001l-0.012,0.001l-0.011,0.002l-0.011,0.001l-0.011,0.001l-0.011,0.002l-0.011,0.001l-0.011,0.002l-0.011,0.002l-0.01,0.002l-0.01,0.002l-0.011,0.002l-0.01,0.002l-0.01,0.002l-0.01,0.002l-0.009,0.003l-0.01,0.002l-0.009,0.002l-0.01,0.003l-0.009,0.003l-0.009,0.002l-0.009,0.003l-0.009,0.003l-0.008,0.003l-0.009,0.003l-0.008,0.003l-0.009,0.003l-0.008,0.003l-0.008,0.003l-0.008,0.004l-0.008,0.003l-0.008,0.004l-0.007,0.003l-0.008,0.004l-0.007,0.003l-0.008,0.004l-0.007,0.004l-0.007,0.003l-0.007,0.004l-0.006,0.004l-0.007,0.004l-0.007,0.004l-0.006,0.004l-0.007,0.004l-0.006,0.004l-0.006,0.004l-0.006,0.004l-0.006,0.005l-0.006,0.004l-0.006,0.004l-0.005,0.005l-0.006,0.004l-0.005,0.005l-0.006,0.004l-0.005,0.005l-0.005,0.004l-0.005,0.005l-0.005,0.005l-0.005,0.004l-0.005,0.005l-0.004,0.005l-0.005,0.005l-0.004,0.005l-0.005,0.005l-0.004,0.005l-0.004,0.005l-0.005,0.005l-0.004,0.005l-0.004,0.005l-0.004,0.005l-0.003,0.006l-0.004,0.005l-0.004,0.005l-0.003,0.006l-0.004,0.005l-0.003,0.006l-0.004,0.005l-0.003,0.006l-0.003,0.006l-0.003,0.005l-0.003,0.006l-0.003,0.006l-0.003,0.006l-0.003,0.006l-0.003,0.006l-0.002,0.006l-0.003,0.006l-0.003,0.006l-0.002,0.006l-0.002,0.007l-0.003,0.006l-0.002,0.006l-0.002,0.007l-0.002,0.006l-0.002,0.007l-0.002,0.007l-0.002,0.006l-0.002,0.007l-0.001,0.007l-0.002,0.007l-0.001,0.007l-0.002,0.007l-0.001,0.007l-0.001,0.007l-0.001,0.007l-0.002,0.008l-0.001,0.007l-0.001,0.007l0,0.008l-0.001,0.007l-0.001,0.008l0,0.008l-0.001,0.007l0,0.008l-0.001,0.008l0,0.008l0,0.008l0,0.008l0,0.017l0.001,0.016l0.001,0.017l0.002,0.015l0.002,0.016l0.002,0.015l0.003,0.014l0.004,0.015l0.003,0.014l0.004,0.014l0.005,0.014l0.005,0.013l0.006,0.014l0.005,0.013l0.007,0.013l0.007,0.014l0.007,0.013l0.008,0.013l0.008,0.013l0.009,0.013l0.01,0.014l0.01,0.013l0.01,0.013l0.012,0.013l0.011,0.014l0.013,0.013l0.013,0.014l0.014,0.013l0.014,0.014l0.015,0.014l0.015,0.013l0.017,0.014l0.016,0.014l0.018,0.014l0.018,0.013l0.019,0.014l0.019,0.014l0.02,0.014l0.021,0.014l0.021,0.014l0.022,0.014l0.022,0.014l0.024,0.015l0.023,0.014l0.025,0.014l0.025,0.015l0.025,0.014l0.026,0.015l0.027,0.014l0.027,0.015l0.028,0.015l0.028,0.014l0.029,0.015l0.03,0.015l0.03,0.015l0.031,0.015l0.031,0.015l0.031,0.016l0.033,0.015l0.032,0.016l0.034,0.015l0.033,0.016l0.035,0.016l0.034,0.016l0.588,0.264l0.064,0.029l0.032,0.015l0.032,0.015l0.031,0.015l0.031,0.014l0.031,0.015l0.03,0.014l0.031,0.015l0.03,0.015l0.029,0.014l0.03,0.015l0.029,0.014l0.029,0.015l0.029,0.014l0.029,0.015l0.028,0.014l0.028,0.015l0.028,0.014l0.027,0.015l0.028,0.015l0.027,0.014l0.026,0.015l0.027,0.014l0.026,0.015l0.026,0.015l0.026,0.015l0.026,0.014l0.025,0.015l0.025,0.015l0.025,0.015l0.025,0.015l0.024,0.015l0.024,0.015l0.024,0.015l0.024,0.015l0.023,0.015l0.024,0.015l0.023,0.016l0.022,0.015l0.023,0.015l0.022,0.016l0.022,0.015l0.022,0.016l0.022,0.016l0.021,0.016l0.021,0.016l0.021,0.016l0.02,0.016l0.021,0.016l0.02,0.016l0.02,0.017l0.02,0.016l0.019,0.017l0.019,0.016l0.019,0.017l0.019,0.017l0.018,0.017l0.018,0.017l0.018,0.018l0.018,0.017l0.018,0.018l0.017,0.017l0.017,0.018l0.017,0.018l0.016,0.018l0.017,0.019l0.016,0.018l0.015,0.019l0.016,0.018l0.015,0.019l0.015,0.019l0.015,0.019l0.014,0.019l0.015,0.02l0.014,0.019l0.013,0.02l0.014,0.02l0.013,0.02l0.013,0.02l0.012,0.021l0.013,0.02l0.012,0.021l0.012,0.021l0.011,0.021l0.012,0.021l0.011,0.021l0.01,0.022l0.011,0.021l0.01,0.022l0.01,0.022l0.01,0.022l0.009,0.022l0.009,0.023l0.009,0.023l0.009,0.022l0.008,0.023l0.008,0.023l0.007,0.024l0.008,0.023l0.007,0.024l0.007,0.024l0.007,0.023l0.006,0.025l0.006,0.024l0.006,0.024l0.005,0.025l0.006,0.025l0.005,0.025l0.004,0.025l0.005,0.025l0.004,0.025l0.004,0.026l0.004,0.026l0.003,0.026l0.003,0.026l0.003,0.026l0.003,0.027l0.002,0.026l0.002,0.027l0.002,0.027l0.002,0.027l0.001,0.028l0.001,0.027l0.001,0.028l0.001,0.028l0,0.028l0,0.029l0,0.027l-0.001,0.028l0,0.027l-0.001,0.027l-0.002,0.028l-0.001,0.027l-0.002,0.027l-0.002,0.027l-0.003,0.028l-0.002,0.027l-0.003,0.027l-0.004,0.027l-0.003,0.027l-0.004,0.027l-0.004,0.027l-0.005,0.026l-0.004,0.027l-0.005,0.027l-0.006,0.026l-0.005,0.027l-0.006,0.026l-0.006,0.027l-0.007,0.026l-0.007,0.026l-0.007,0.027l-0.007,0.026l-0.008,0.026l-0.008,0.026l-0.008,0.026l-0.008,0.025l-0.009,0.026l-0.009,0.026l-0.01,0.025l-0.009,0.026l-0.01,0.025l-0.01,0.025l-0.011,0.025l-0.011,0.025l-0.011,0.025l-0.011,0.025l-0.012,0.025l-0.012,0.024l-0.012,0.025l-0.013,0.024l-0.012,0.024l-0.014,0.024l-0.013,0.024l-0.014,0.024l-0.014,0.024l-0.014,0.023l-0.014,0.024l-0.015,0.023l-0.015,0.023l-0.016,0.023l-0.016,0.023l-0.016,0.023l-0.016,0.022l-0.016,0.023l-0.017,0.022l-0.017,0.022l-0.018,0.022l-0.017,0.022l-0.018,0.022l-0.019,0.021l-0.018,0.022l-0.019,0.021l-0.019,0.021l-0.02,0.02l-0.019,0.021l-0.02,0.021l-0.02,0.02l-0.021,0.02l-0.021,0.02l-0.021,0.02l-0.021,0.019l-0.022,0.019l-0.022,0.02l-0.022,0.019l-0.022,0.018l-0.023,0.019l-0.023,0.018l-0.023,0.018l-0.024,0.018l-0.024,0.018l-0.024,0.018l-0.024,0.017l-0.025,0.017l-0.025,0.017l-0.025,0.017l-0.026,0.016l-0.025,0.017l-0.026,0.016l-0.027,0.015l-0.026,0.016l-0.027,0.015l-0.027,0.015l-0.027,0.015l-0.028,0.015l-0.028,0.014l-0.014,0.008l-0.014,0.007l-0.014,0.007l-0.015,0.007l-0.014,0.007l-0.014,0.006l-0.015,0.007l-0.014,0.007l-0.015,0.007l-0.014,0.006l-0.015,0.007l-0.015,0.006l-0.015,0.007l-0.015,0.006l-0.015,0.006l-0.015,0.007l-0.015,0.006l-0.015,0.006l-0.015,0.006l-0.015,0.006l-0.016,0.006l-0.015,0.006l-0.016,0.005l-0.015,0.006l-0.016,0.006l-0.016,0.005l-0.015,0.006l-0.016,0.005l-0.016,0.006l-0.016,0.005l-0.016,0.005l-0.016,0.006l-0.016,0.005l-0.016,0.005l-0.017,0.005l-0.016,0.005l-0.016,0.005l-0.017,0.004l-0.016,0.005l-0.017,0.005l-0.017,0.004l-0.016,0.005l-0.017,0.005l-0.017,0.004l-0.017,0.004l-0.017,0.005l-0.017,0.004l-0.017,0.004l-0.004,0.001l0.032,1.462l-0.002,0.03l-0.005,0.029l-0.01,0.028l-0.014,0.026l-0.018,0.024l-0.02,0.022l-0.024,0.018l-0.026,0.014l-0.028,0.011l-0.029,0.006l-0.029,0.002l-1.464,0l-0.03,-0.002l-0.029,-0.006l-0.028,-0.011l-0.026,-0.014l-0.023,-0.018l-0.021,-0.022l-0.018,-0.024l-0.014,-0.026l-0.009,-0.028l-0.006,-0.029l-0.002,-0.03l0.032,-1.385l-0.029,-0.005l-0.031,-0.004l-0.03,-0.005l-0.03,-0.004l-0.029,-0.005l-0.03,-0.005l-0.029,-0.006l-0.029,-0.005l-0.029,-0.006l-0.029,-0.005l-0.029,-0.006l-0.028,-0.006l-0.028,-0.006l-0.028,-0.006l-0.028,-0.007l-0.027,-0.006l-0.028,-0.007l-0.027,-0.007l-0.027,-0.006l-0.026,-0.007l-0.027,-0.007l-0.026,-0.008l-0.026,-0.007l-0.026,-0.007l-0.026,-0.008l-0.026,-0.008l-0.025,-0.007l-0.025,-0.008l-0.025,-0.008l-0.025,-0.008l-0.024,-0.008l-0.025,-0.009l-0.024,-0.008l-0.024,-0.008l-0.024,-0.009l-0.023,-0.008l-0.024,-0.009l-0.023,-0.009l-0.023,-0.009l-0.023,-0.009l-0.022,-0.009l-0.023,-0.009l-0.022,-0.009l-0.022,-0.009l-0.022,-0.009l-0.021,-0.01l-0.022,-0.009l-0.021,-0.009l-0.021,-0.01l-0.021,-0.009l-0.021,-0.01l-0.02,-0.01l-0.021,-0.009l-0.02,-0.01l-0.02,-0.01l-0.02,-0.01l-0.019,-0.01l-0.02,-0.01l-0.019,-0.009l-0.019,-0.01l-0.019,-0.01l-0.018,-0.01l-0.019,-0.01l-0.018,-0.011l-0.018,-0.01l-0.018,-0.01l-0.018,-0.01l-0.018,-0.01l-0.017,-0.01l-0.017,-0.01l-0.017,-0.01l-0.017,-0.011l-0.017,-0.01l-0.016,-0.01l-0.016,-0.01l-0.017,-0.01l-0.016,-0.01l-0.015,-0.01l-0.016,-0.011l-0.015,-0.01l-0.016,-0.01l-0.015,-0.01l-0.029,-0.02l-0.029,-0.02l-0.028,-0.02l-0.028,-0.019l-0.027,-0.02l-0.026,-0.019l-0.025,-0.02l-0.025,-0.018l-0.024,-0.019l-0.023,-0.019l-0.023,-0.018l-0.022,-0.018l-0.021,-0.017l-0.021,-0.018l-0.02,-0.016l-0.019,-0.017l-0.019,-0.016l-0.018,-0.016l-0.017,-0.015l-0.017,-0.015l-0.021,-0.022l-0.018,-0.024l-0.014,-0.027l-0.009,-0.029l-0.006,-0.03l-0.001,-0.03l0.004,-0.031l0.008,-0.029l0.012,-0.028l0.017,-0.026l0.996,-1.344l0.018,-0.021l0.022,-0.019l0.024,-0.016l0.026,-0.012l0.027,-0.009l0.029,-0.005l0.028,0l0.029,0.003l0.028,0.007l0.026,0.011l0.025,0.015l0.022,0.018l0.017,0.015l0.016,0.015l0.017,0.016l0.018,0.016l0.019,0.015l0.018,0.017l0.02,0.016l0.02,0.017l0.021,0.016l0.021,0.017l0.022,0.017l0.022,0.017l0.023,0.018l0.023,0.017l0.024,0.018l0.024,0.017l0.025,0.018l0.025,0.017l0.026,0.018l0.026,0.017l0.027,0.018l0.027,0.017l0.028,0.018l0.028,0.017l0.029,0.017l0.029,0.017l0.03,0.017l0.03,0.017l0.03,0.016l0.031,0.017l0.031,0.016l0.032,0.016l0.032,0.016l0.032,0.015l0.033,0.015l0.033,0.015l0.017,0.008l0.017,0.007l0.017,0.007l0.017,0.007l0.017,0.007l0.017,0.007l0.017,0.007l0.018,0.007l0.017,0.006l0.018,0.007l0.018,0.006l0.017,0.007l0.018,0.006l0.018,0.006l0.018,0.006l0.018,0.006l0.018,0.006l0.019,0.006l0.018,0.005l0.018,0.006l0.019,0.005l0.018,0.006l0.019,0.005l0.019,0.005l0.019,0.005l0.018,0.004l0.019,0.005l0.019,0.005l0.02,0.004l0.019,0.004l0.019,0.004l0.019,0.004l0.02,0.004l0.019,0.004l0.02,0.003l0.019,0.004l0.02,0.003l0.02,0.003l0.02,0.003l0.019,0.003l0.02,0.003l0.02,0.002l0.021,0.002l0.02,0.003l0.02,0.002l0.02,0.001l0.021,0.002l0.02,0.002l0.02,0.001l0.021,0.001l0.021,0.001l0.02,0.001l0.021,0.001l0.021,0l0.021,0l0.021,0l0.014,0l0.014,0l0.015,0l0.014,0l0.014,-0.001l0.013,0l0.014,-0.001l0.014,-0.001l0.013,-0.001l0.013,-0.001l0.013,-0.001l0.013,-0.001l0.013,-0.001l0.012,-0.001l0.013,-0.002l0.012,-0.001l0.012,-0.002l0.012,-0.001l0.012,-0.002l0.012,-0.002l0.012,-0.002l0.011,-0.002l0.012,-0.002l0.011,-0.002l0.011,-0.003l0.011,-0.002l0.01,-0.002l0.011,-0.003l0.01,-0.002l0.011,-0.003l0.01,-0.003l0.01,-0.002l0.01,-0.003l0.009,-0.003l0.01,-0.003l0.009,-0.003l0.01,-0.003l0.009,-0.003l0.009,-0.004l0.009,-0.003l0.009,-0.003l0.008,-0.004l0.009,-0.003l0.008,-0.004l0.008,-0.003l0.008,-0.004l0.008,-0.004l0.008,-0.003l0.008,-0.004l0.007,-0.004l0.008,-0.004l0.007,-0.004l0.007,-0.004l0.007,-0.004l0.007,-0.004l0.006,-0.004l0.007,-0.004l0.007,-0.004l0.006,-0.005l0.006,-0.004l0.006,-0.004l0.006,-0.004l0.006,-0.005l0.006,-0.004l0.006,-0.005l0.005,-0.004l0.006,-0.005l0.005,-0.004l0.005,-0.005l0.005,-0.005l0.005,-0.004l0.005,-0.005l0.005,-0.005l0.004,-0.004l0.005,-0.005l0.004,-0.005l0.005,-0.005l0.004,-0.005l0.004,-0.005l0.004,-0.005l0.004,-0.005l0.004,-0.005l0.004,-0.005l0.004,-0.005l0.003,-0.005l0.004,-0.005l0.003,-0.006l0.004,-0.005l0.003,-0.005l0.003,-0.006l0.003,-0.005l0.003,-0.006l0.003,-0.005l0.003,-0.006l0.003,-0.005l0.003,-0.006l0.002,-0.006l0.003,-0.005l0.002,-0.006l0.003,-0.006l0.002,-0.006l0.002,-0.006l0.002,-0.006l0.002,-0.006l0.002,-0.006l0.002,-0.006l0.002,-0.007l0.002,-0.006l0.001,-0.006l0.002,-0.007l0.001,-0.006l0.002,-0.007l0.001,-0.006l0.002,-0.007l0.001,-0.007l0.001,-0.006l0.001,-0.007l0.001,-0.007l0.001,-0.007l0,-0.007l0.001,-0.007l0.001,-0.008l0,-0.007l0.001,-0.007l0,-0.008l0,-0.007l0,-0.008l0,-0.007l0,-0.009l0,-0.008l0,-0.009l-0.001,-0.008l0,-0.008l-0.001,-0.008l0,-0.007l-0.001,-0.008l-0.001,-0.007l-0.001,-0.008l-0.001,-0.007l-0.001,-0.007l-0.001,-0.007l-0.002,-0.007l-0.001,-0.007l-0.002,-0.006l-0.001,-0.007l-0.002,-0.006l-0.002,-0.007l-0.002,-0.006l-0.001,-0.006l-0.003,-0.006l-0.002,-0.006l-0.002,-0.006l-0.002,-0.006l-0.003,-0.006l-0.002,-0.006l-0.003,-0.006l-0.003,-0.006l-0.002,-0.006l-0.003,-0.006l-0.003,-0.005l-0.004,-0.006l-0.003,-0.006l-0.003,-0.006l-0.004,-0.005l-0.004,-0.006l-0.003,-0.006l-0.004,-0.006l-0.004,-0.006l-0.005,-0.005l-0.004,-0.006l-0.005,-0.006l-0.004,-0.006l-0.005,-0.006l-0.005,-0.006l-0.005,-0.006l-0.006,-0.006l-0.005,-0.006l-0.006,-0.006l-0.006,-0.006l-0.006,-0.006l-0.006,-0.006l-0.007,-0.007l-0.006,-0.006l-0.007,-0.006l-0.007,-0.006l-0.007,-0.007l-0.008,-0.006l-0.007,-0.006l-0.008,-0.007l-0.008,-0.006l-0.008,-0.007l-0.008,-0.006l-0.009,-0.007l-0.009,-0.006l-0.009,-0.007l-0.009,-0.007l-0.009,-0.006l-0.01,-0.007l-0.01,-0.007l-0.01,-0.007l-0.01,-0.006l-0.01,-0.007l-0.011,-0.007l-0.011,-0.007l-0.011,-0.007l-0.011,-0.007l-0.011,-0.007l-0.012,-0.007l-0.012,-0.007l-0.011,-0.007l-0.025,-0.015l-0.026,-0.014l-0.026,-0.015l-0.027,-0.015l-0.028,-0.015l-0.029,-0.015l-0.029,-0.016l-0.031,-0.015l-0.031,-0.016l-0.032,-0.016l-0.033,-0.016l-0.034,-0.017l-0.034,-0.016l-0.035,-0.017l-0.037,-0.017l-0.037,-0.018l-0.037,-0.017l-0.039,-0.018l-0.039,-0.018l-0.082,-0.038l-0.084,-0.038l-0.719,-0.324l-0.03,-0.013l-0.029,-0.013l-0.03,-0.014l-0.029,-0.014l-0.03,-0.013l-0.028,-0.014l-0.029,-0.014l-0.028,-0.014l-0.028,-0.014l-0.028,-0.014l-0.028,-0.015l-0.027,-0.014l-0.027,-0.014l-0.027,-0.015l-0.027,-0.015l-0.026,-0.014l-0.026,-0.015l-0.026,-0.015l-0.026,-0.015l-0.025,-0.015l-0.025,-0.015l-0.025,-0.015l-0.025,-0.016l-0.024,-0.015l-0.024,-0.015l-0.024,-0.016l-0.024,-0.016l-0.023,-0.015l-0.023,-0.016l-0.023,-0.016l-0.023,-0.016l-0.022,-0.016l-0.022,-0.017l-0.022,-0.016l-0.022,-0.016l-0.021,-0.017l-0.022,-0.016l-0.021,-0.017l-0.02,-0.017l-0.021,-0.017l-0.02,-0.017l-0.02,-0.017l-0.02,-0.017l-0.019,-0.017l-0.02,-0.018l-0.019,-0.017l-0.018,-0.018l-0.019,-0.017l-0.018,-0.018l-0.019,-0.018l-0.017,-0.018l-0.018,-0.018l-0.017,-0.018l-0.018,-0.018l-0.016,-0.019l-0.017,-0.018l-0.017,-0.019l-0.016,-0.018l-0.016,-0.019l-0.015,-0.019l-0.016,-0.019l-0.015,-0.019l-0.015,-0.019l-0.015,-0.019l-0.014,-0.019l-0.015,-0.02l-0.014,-0.019l-0.013,-0.02l-0.014,-0.019l-0.013,-0.02l-0.013,-0.02l-0.013,-0.02l-0.013,-0.02l-0.012,-0.02l-0.012,-0.021l-0.012,-0.02l-0.012,-0.02l-0.011,-0.021l-0.011,-0.021l-0.011,-0.02l-0.011,-0.021l-0.011,-0.021l-0.01,-0.021l-0.01,-0.021l-0.009,-0.021l-0.01,-0.021l-0.009,-0.022l-0.009,-0.021l-0.009,-0.021l-0.009,-0.022l-0.008,-0.022l-0.008,-0.021l-0.008,-0.022l-0.007,-0.022l-0.008,-0.022l-0.007,-0.022l-0.007,-0.022l-0.007,-0.022l-0.006,-0.023l-0.006,-0.022l-0.006,-0.022l-0.006,-0.023l-0.005,-0.022l-0.006,-0.023l-0.005,-0.023l-0.005,-0.023l-0.004,-0.022l-0.005,-0.023l-0.004,-0.023l-0.004,-0.023l-0.003,-0.023l-0.004,-0.024l-0.003,-0.023l-0.003,-0.023l-0.003,-0.024l-0.003,-0.023l-0.002,-0.024l-0.002,-0.023l-0.002,-0.024l-0.002,-0.023l-0.002,-0.024l-0.001,-0.024l-0.001,-0.024l-0.001,-0.024l-0.001,-0.024l0,-0.024l-0.001,-0.024l0,-0.024l0,-0.017l0,-0.016l0.001,-0.016l0,-0.016l0,-0.017l0.001,-0.016l0.001,-0.016l0,-0.016l0.001,-0.016l0.001,-0.016l0.001,-0.016l0.001,-0.016l0.001,-0.016l0.001,-0.016l0.002,-0.016l0.001,-0.015l0.002,-0.016l0.001,-0.016l0.002,-0.016l0.002,-0.015l0.002,-0.016l0.002,-0.015l0.002,-0.016l0.002,-0.015l0.002,-0.016l0.003,-0.015l0.002,-0.016l0.003,-0.015l0.002,-0.015l0.003,-0.015l0.003,-0.016l0.003,-0.015l0.003,-0.015l0.003,-0.015l0.003,-0.015l0.003,-0.015l0.003,-0.015l0.004,-0.015l0.003,-0.014l0.004,-0.015l0.004,-0.015l0.003,-0.015l0.004,-0.014l0.004,-0.015l0.004,-0.015l0.004,-0.014l0.004,-0.015l0.005,-0.014l0.004,-0.014l0.004,-0.015l0.005,-0.014l0.005,-0.014l0.004,-0.015l0.005,-0.014l0.005,-0.014l0.005,-0.014l0.005,-0.014l0.005,-0.014l0.005,-0.014l0.005,-0.014l0.006,-0.014l0.005,-0.014l0.006,-0.013l0.005,-0.014l0.006,-0.014l0.006,-0.013l0.005,-0.014l0.006,-0.013l0.006,-0.014l0.006,-0.013l0.006,-0.014l0.007,-0.013l0.006,-0.013l0.006,-0.013l0.007,-0.014l0.006,-0.013l0.007,-0.013l0.006,-0.013l0.007,-0.013l0.007,-0.013l0.007,-0.013l0.007,-0.012l0.007,-0.013l0.007,-0.013l0.007,-0.013l0.007,-0.012l0.008,-0.013l0.007,-0.012l0.008,-0.013l0.007,-0.012l0.008,-0.013l0.008,-0.012l0.007,-0.012l0.008,-0.012l0.008,-0.013l0.008,-0.012l0.008,-0.012l0.008,-0.012l0.008,-0.012l0.009,-0.012l0.008,-0.011l0.008,-0.012l0.009,-0.012l0.008,-0.012l0.009,-0.011l0.009,-0.012l0.008,-0.011l0.009,-0.012l0.009,-0.011l0.009,-0.012l0.009,-0.011l0.009,-0.011l0.009,-0.011l0.009,-0.012l0.01,-0.011l0.009,-0.011l0.019,-0.022l0.019,-0.021l0.019,-0.022l0.02,-0.021l0.019,-0.021l0.021,-0.021l0.02,-0.021l0.02,-0.02l0.021,-0.02l0.021,-0.02l0.021,-0.02l0.022,-0.019l0.022,-0.02l0.021,-0.019l0.023,-0.018l0.022,-0.019l0.022,-0.018l0.023,-0.018l0.023,-0.018l0.023,-0.018l0.024,-0.018l0.023,-0.017l0.024,-0.017l0.024,-0.016l0.024,-0.017l0.025,-0.016l0.024,-0.016l0.025,-0.016l0.025,-0.016l0.025,-0.015l0.026,-0.015l0.025,-0.015l0.026,-0.015l0.026,-0.014l0.026,-0.014l0.026,-0.014l0.026,-0.014l0.027,-0.014l0.027,-0.013l0.027,-0.013l0.027,-0.013l0.027,-0.012l0.027,-0.013l0.028,-0.012l0.027,-0.012l0.028,-0.011l0.028,-0.012l0.028,-0.011l0.029,-0.011l0.028,-0.01l0.029,-0.011l0.028,-0.01l0.029,-0.01l0.029,-0.009l0.029,-0.01l0.03,-0.009l0.029,-0.009l0.029,-0.009l0.03,-0.008l0.03,-0.008l0.03,-0.008l0.03,-0.008l0.03,-0.008l0.03,-0.007l0.01,-0.002l-0.043,-1.364l0.002,-0.03l0.005,-0.029l0.01,-0.028l0.014,-0.027l0.017,-0.024l0.021,-0.022l0.024,-0.018l0.026,-0.014l0.028,-0.011l0.029,-0.006l0.03,-0.003l1.464,0l0.029,0.003Zm-1.493,0.203l0.048,1.536l-0.03,0.005l-0.029,0.006l-0.029,0.006l-0.028,0.006l-0.029,0.006l-0.029,0.007l-0.028,0.007l-0.029,0.007l-0.028,0.007l-0.028,0.008l-0.028,0.008l-0.028,0.007l-0.028,0.009l-0.028,0.008l-0.027,0.009l-0.028,0.009l-0.027,0.009l-0.027,0.009l-0.027,0.01l-0.027,0.009l-0.026,0.01l-0.027,0.011l-0.026,0.01l-0.027,0.011l-0.026,0.011l-0.026,0.011l-0.025,0.011l-0.026,0.012l-0.025,0.011l-0.026,0.012l-0.025,0.012l-0.025,0.013l-0.025,0.012l-0.024,0.013l-0.025,0.013l-0.024,0.014l-0.024,0.013l-0.024,0.014l-0.024,0.014l-0.023,0.014l-0.024,0.014l-0.023,0.014l-0.023,0.015l-0.023,0.015l-0.023,0.015l-0.022,0.016l-0.022,0.015l-0.022,0.016l-0.022,0.016l-0.022,0.016l-0.021,0.016l-0.022,0.017l-0.021,0.017l-0.021,0.017l-0.02,0.017l-0.021,0.017l-0.02,0.018l-0.02,0.017l-0.02,0.018l-0.019,0.019l-0.02,0.018l-0.019,0.019l-0.019,0.018l-0.018,0.019l-0.019,0.019l-0.018,0.02l-0.018,0.019l-0.018,0.02l-0.017,0.02l-0.018,0.02l-0.008,0.01l-0.009,0.01l-0.008,0.011l-0.008,0.01l-0.009,0.01l-0.008,0.011l-0.008,0.01l-0.008,0.01l-0.008,0.011l-0.008,0.011l-0.008,0.01l-0.008,0.011l-0.008,0.011l-0.008,0.01l-0.007,0.011l-0.008,0.011l-0.008,0.011l-0.007,0.011l-0.007,0.011l-0.008,0.011l-0.007,0.011l-0.007,0.011l-0.007,0.011l-0.008,0.011l-0.007,0.012l-0.007,0.011l-0.007,0.011l-0.006,0.012l-0.007,0.011l-0.007,0.012l-0.006,0.011l-0.007,0.012l-0.007,0.011l-0.006,0.012l-0.006,0.012l-0.007,0.012l-0.006,0.011l-0.006,0.012l-0.006,0.012l-0.006,0.012l-0.006,0.012l-0.006,0.012l-0.006,0.012l-0.005,0.012l-0.006,0.012l-0.006,0.013l-0.005,0.012l-0.006,0.012l-0.005,0.013l-0.005,0.012l-0.006,0.012l-0.005,0.013l-0.005,0.012l-0.005,0.013l-0.005,0.013l-0.005,0.012l-0.005,0.013l-0.004,0.013l-0.005,0.013l-0.005,0.012l-0.004,0.013l-0.005,0.013l-0.004,0.013l-0.004,0.013l-0.004,0.013l-0.005,0.013l-0.004,0.013l-0.004,0.014l-0.003,0.013l-0.004,0.013l-0.004,0.013l-0.004,0.014l-0.003,0.013l-0.004,0.014l-0.003,0.013l-0.004,0.014l-0.003,0.013l-0.003,0.014l-0.003,0.014l-0.003,0.013l-0.003,0.014l-0.003,0.014l-0.003,0.014l-0.003,0.013l-0.002,0.014l-0.003,0.014l-0.002,0.014l-0.003,0.014l-0.002,0.014l-0.002,0.014l-0.003,0.015l-0.002,0.014l-0.002,0.014l-0.002,0.014l-0.001,0.015l-0.002,0.014l-0.002,0.014l-0.001,0.015l-0.002,0.014l-0.001,0.015l-0.002,0.014l-0.001,0.015l-0.001,0.015l-0.001,0.014l-0.001,0.015l-0.001,0.015l-0.001,0.015l-0.001,0.015l0,0.014l-0.001,0.015l0,0.015l-0.001,0.015l0,0.015l0,0.015l0,0.016l0,0.015l0,0.022l0,0.023l0,0.022l0.001,0.022l0.001,0.022l0.001,0.022l0.001,0.022l0.002,0.022l0.001,0.022l0.002,0.022l0.002,0.021l0.002,0.022l0.003,0.022l0.002,0.021l0.003,0.021l0.003,0.022l0.003,0.021l0.004,0.021l0.003,0.021l0.004,0.021l0.004,0.021l0.004,0.021l0.005,0.02l0.004,0.021l0.005,0.021l0.005,0.02l0.006,0.021l0.005,0.02l0.006,0.02l0.005,0.02l0.007,0.021l0.006,0.02l0.006,0.02l0.007,0.019l0.007,0.02l0.007,0.02l0.007,0.02l0.008,0.019l0.007,0.02l0.008,0.019l0.009,0.02l0.008,0.019l0.009,0.019l0.008,0.019l0.009,0.019l0.01,0.019l0.009,0.019l0.01,0.019l0.01,0.019l0.01,0.018l0.01,0.019l0.011,0.018l0.01,0.019l0.011,0.018l0.012,0.019l0.011,0.018l0.012,0.018l0.012,0.018l0.012,0.018l0.012,0.018l0.013,0.018l0.012,0.017l0.013,0.018l0.014,0.018l0.013,0.017l0.014,0.018l0.014,0.017l0.014,0.017l0.014,0.018l0.015,0.017l0.015,0.017l0.015,0.017l0.015,0.017l0.016,0.017l0.016,0.017l0.016,0.016l0.016,0.017l0.016,0.017l0.017,0.016l0.017,0.017l0.017,0.016l0.018,0.016l0.017,0.016l0.018,0.016l0.019,0.017l0.018,0.016l0.019,0.015l0.019,0.016l0.019,0.016l0.019,0.016l0.02,0.015l0.02,0.016l0.02,0.015l0.02,0.016l0.021,0.015l0.021,0.015l0.021,0.016l0.021,0.015l0.022,0.015l0.021,0.015l0.023,0.015l0.022,0.014l0.023,0.015l0.022,0.015l0.024,0.014l0.023,0.015l0.024,0.014l0.023,0.015l0.025,0.014l0.024,0.014l0.025,0.015l0.025,0.014l0.025,0.014l0.025,0.014l0.026,0.014l0.026,0.013l0.026,0.014l0.026,0.014l0.027,0.013l0.027,0.014l0.027,0.013l0.028,0.014l0.028,0.013l0.028,0.013l0.028,0.014l0.029,0.013l0.029,0.013l0.029,0.013l0.72,0.324l0.085,0.039l0.082,0.037l0.039,0.018l0.039,0.019l0.039,0.017l0.037,0.018l0.037,0.018l0.036,0.017l0.035,0.017l0.034,0.016l0.034,0.017l0.033,0.017l0.032,0.016l0.032,0.016l0.031,0.016l0.03,0.016l0.029,0.016l0.028,0.015l0.028,0.016l0.027,0.015l0.027,0.016l0.026,0.015l0.025,0.015l0.024,0.016l0.023,0.015l0.023,0.015l0.023,0.015l0.021,0.016l0.021,0.015l0.02,0.015l0.02,0.016l0.018,0.015l0.019,0.016l0.017,0.015l0.017,0.016l0.016,0.015l0.016,0.016l0.014,0.016l0.015,0.016l0.013,0.017l0.013,0.016l0.012,0.017l0.012,0.016l0.011,0.017l0.01,0.017l0.01,0.018l0.009,0.017l0.009,0.018l0.008,0.018l0.007,0.019l0.007,0.018l0.006,0.019l0.005,0.019l0.005,0.02l0.005,0.02l0.003,0.02l0.004,0.02l0.002,0.021l0.002,0.021l0.002,0.022l0,0.021l0.001,0.023l0,0.01l-0.001,0.01l0,0.01l0,0.01l-0.001,0.01l-0.001,0.01l0,0.01l-0.001,0.009l-0.001,0.01l-0.002,0.01l-0.001,0.009l-0.001,0.01l-0.002,0.009l-0.001,0.01l-0.002,0.009l-0.002,0.01l-0.002,0.009l-0.002,0.009l-0.003,0.01l-0.002,0.009l-0.003,0.009l-0.002,0.009l-0.003,0.009l-0.003,0.009l-0.003,0.009l-0.003,0.009l-0.003,0.008l-0.004,0.009l-0.003,0.009l-0.004,0.008l-0.004,0.009l-0.004,0.008l-0.004,0.009l-0.004,0.008l-0.004,0.008l-0.004,0.009l-0.005,0.008l-0.005,0.008l-0.004,0.008l-0.005,0.008l-0.005,0.008l-0.005,0.007l-0.006,0.008l-0.005,0.008l-0.005,0.008l-0.006,0.007l-0.006,0.008l-0.006,0.007l-0.006,0.007l-0.006,0.008l-0.006,0.007l-0.007,0.007l-0.006,0.007l-0.007,0.007l-0.006,0.007l-0.007,0.007l-0.007,0.007l-0.007,0.006l-0.008,0.007l-0.007,0.006l-0.008,0.007l-0.007,0.006l-0.008,0.007l-0.008,0.006l-0.008,0.006l-0.008,0.006l-0.008,0.006l-0.009,0.006l-0.008,0.006l-0.009,0.005l-0.009,0.006l-0.008,0.006l-0.009,0.005l-0.01,0.006l-0.009,0.005l-0.009,0.005l-0.01,0.005l-0.009,0.005l-0.01,0.005l-0.01,0.005l-0.01,0.005l-0.01,0.005l-0.01,0.004l-0.011,0.005l-0.01,0.004l-0.011,0.005l-0.011,0.004l-0.011,0.004l-0.011,0.004l-0.011,0.004l-0.011,0.004l-0.012,0.004l-0.011,0.004l-0.012,0.003l-0.012,0.004l-0.011,0.003l-0.012,0.004l-0.013,0.003l-0.012,0.003l-0.012,0.003l-0.013,0.003l-0.013,0.003l-0.012,0.002l-0.013,0.003l-0.013,0.003l-0.013,0.002l-0.014,0.002l-0.013,0.003l-0.014,0.002l-0.013,0.002l-0.014,0.002l-0.014,0.002l-0.014,0.001l-0.014,0.002l-0.015,0.001l-0.014,0.002l-0.015,0.001l-0.014,0.001l-0.015,0.001l-0.015,0.001l-0.015,0.001l-0.015,0.001l-0.016,0l-0.015,0.001l-0.016,0l-0.016,0.001l-0.015,0l-0.016,0l-0.023,0l-0.023,-0.001l-0.022,0l-0.023,-0.001l-0.022,-0.001l-0.023,-0.001l-0.022,-0.001l-0.022,-0.002l-0.022,-0.001l-0.023,-0.002l-0.022,-0.002l-0.021,-0.002l-0.022,-0.003l-0.022,-0.002l-0.022,-0.003l-0.021,-0.003l-0.022,-0.003l-0.021,-0.003l-0.022,-0.003l-0.021,-0.004l-0.021,-0.003l-0.021,-0.004l-0.021,-0.004l-0.021,-0.004l-0.021,-0.005l-0.021,-0.004l-0.021,-0.005l-0.02,-0.004l-0.021,-0.005l-0.02,-0.005l-0.021,-0.005l-0.02,-0.006l-0.02,-0.005l-0.02,-0.006l-0.02,-0.005l-0.02,-0.006l-0.02,-0.006l-0.019,-0.006l-0.02,-0.006l-0.019,-0.007l-0.02,-0.006l-0.019,-0.006l-0.019,-0.007l-0.019,-0.007l-0.019,-0.007l-0.019,-0.006l-0.019,-0.007l-0.019,-0.008l-0.018,-0.007l-0.019,-0.007l-0.018,-0.008l-0.019,-0.007l-0.018,-0.008l-0.018,-0.007l-0.018,-0.008l-0.018,-0.008l-0.018,-0.008l-0.017,-0.008l-0.018,-0.008l-0.017,-0.008l-0.018,-0.008l-0.017,-0.008l-0.017,-0.009l-0.017,-0.008l-0.017,-0.009l-0.017,-0.008l-0.016,-0.009l-0.017,-0.008l-0.016,-0.009l-0.016,-0.009l-0.017,-0.009l-0.016,-0.009l-0.016,-0.008l-0.016,-0.009l-0.015,-0.009l-0.016,-0.009l-0.015,-0.009l-0.016,-0.009l-0.015,-0.009l-0.015,-0.01l-0.015,-0.009l-0.015,-0.009l-0.015,-0.009l-0.014,-0.009l-0.015,-0.01l-0.014,-0.009l-0.015,-0.009l-0.014,-0.009l-0.014,-0.01l-0.014,-0.009l-0.027,-0.019l-0.027,-0.018l-0.026,-0.019l-0.026,-0.018l-0.025,-0.019l-0.025,-0.018l-0.024,-0.019l-0.024,-0.018l-0.023,-0.018l-0.022,-0.018l-0.022,-0.018l-0.021,-0.017l-0.021,-0.018l-0.02,-0.017l-0.02,-0.017l-0.019,-0.017l-0.018,-0.016l-0.018,-0.016l-0.017,-0.016l-0.996,1.344l0.016,0.014l0.016,0.015l0.018,0.015l0.017,0.015l0.019,0.016l0.019,0.016l0.02,0.017l0.02,0.016l0.021,0.017l0.022,0.018l0.022,0.017l0.023,0.018l0.023,0.018l0.024,0.018l0.025,0.019l0.026,0.018l0.026,0.019l0.026,0.019l0.028,0.019l0.028,0.019l0.029,0.019l0.029,0.019l0.03,0.019l0.031,0.02l0.031,0.019l0.033,0.019l0.032,0.019l0.034,0.02l0.034,0.019l0.018,0.009l0.017,0.01l0.018,0.009l0.018,0.01l0.018,0.009l0.018,0.01l0.019,0.009l0.018,0.01l0.019,0.009l0.019,0.009l0.019,0.009l0.019,0.01l0.02,0.009l0.02,0.009l0.02,0.009l0.02,0.009l0.02,0.009l0.02,0.009l0.021,0.009l0.021,0.009l0.021,0.008l0.021,0.009l0.021,0.009l0.022,0.008l0.021,0.009l0.022,0.008l0.022,0.009l0.023,0.008l0.022,0.008l0.023,0.008l0.023,0.008l0.023,0.008l0.023,0.008l0.023,0.008l0.024,0.007l0.024,0.008l0.024,0.007l0.024,0.008l0.024,0.007l0.025,0.007l0.025,0.007l0.025,0.007l0.025,0.007l0.025,0.007l0.026,0.007l0.025,0.006l0.026,0.007l0.026,0.006l0.027,0.006l0.026,0.006l0.027,0.006l0.027,0.006l0.027,0.006l0.027,0.005l0.028,0.006l0.027,0.005l0.028,0.005l0.029,0.005l0.028,0.005l0.028,0.005l0.029,0.004l0.029,0.005l0.029,0.004l0.029,0.004l0.03,0.004l0.03,0.004l0.03,0.004l0.03,0.003l0.03,0.004l0.031,0.003l-0.036,1.572l1.464,0l-0.036,-1.632l0.016,-0.003l0.017,-0.004l0.017,-0.003l0.017,-0.004l0.016,-0.003l0.017,-0.004l0.016,-0.003l0.017,-0.004l0.016,-0.004l0.016,-0.004l0.016,-0.004l0.016,-0.004l0.016,-0.004l0.016,-0.004l0.016,-0.004l0.016,-0.004l0.016,-0.005l0.016,-0.004l0.015,-0.004l0.016,-0.005l0.015,-0.004l0.016,-0.005l0.015,-0.005l0.016,-0.004l0.015,-0.005l0.015,-0.005l0.015,-0.005l0.015,-0.005l0.015,-0.005l0.015,-0.005l0.015,-0.005l0.015,-0.005l0.015,-0.005l0.014,-0.006l0.015,-0.005l0.014,-0.006l0.015,-0.005l0.014,-0.006l0.015,-0.005l0.014,-0.006l0.014,-0.006l0.014,-0.005l0.014,-0.006l0.014,-0.006l0.014,-0.006l0.014,-0.006l0.014,-0.006l0.014,-0.006l0.013,-0.006l0.014,-0.007l0.014,-0.006l0.013,-0.006l0.013,-0.007l0.014,-0.006l0.013,-0.007l0.013,-0.006l0.013,-0.007l0.014,-0.006l0.025,-0.014l0.026,-0.013l0.026,-0.014l0.025,-0.014l0.025,-0.015l0.024,-0.014l0.025,-0.015l0.024,-0.015l0.024,-0.015l0.023,-0.015l0.024,-0.016l0.023,-0.015l0.023,-0.016l0.022,-0.016l0.022,-0.016l0.022,-0.017l0.022,-0.016l0.022,-0.017l0.021,-0.017l0.021,-0.017l0.021,-0.017l0.02,-0.018l0.02,-0.017l0.02,-0.018l0.02,-0.018l0.019,-0.018l0.019,-0.019l0.019,-0.018l0.019,-0.019l0.018,-0.019l0.018,-0.018l0.018,-0.02l0.017,-0.019l0.018,-0.019l0.017,-0.02l0.016,-0.019l0.017,-0.02l0.016,-0.02l0.016,-0.02l0.016,-0.021l0.015,-0.02l0.015,-0.021l0.015,-0.02l0.015,-0.021l0.014,-0.021l0.014,-0.021l0.014,-0.021l0.014,-0.022l0.013,-0.021l0.013,-0.022l0.013,-0.021l0.012,-0.022l0.013,-0.022l0.012,-0.022l0.011,-0.022l0.012,-0.022l0.011,-0.023l0.011,-0.022l0.011,-0.023l0.01,-0.022l0.01,-0.023l0.01,-0.023l0.01,-0.023l0.009,-0.023l0.009,-0.023l0.009,-0.024l0.009,-0.023l0.008,-0.023l0.008,-0.024l0.008,-0.024l0.007,-0.023l0.008,-0.024l0.007,-0.024l0.006,-0.024l0.007,-0.024l0.006,-0.024l0.006,-0.024l0.005,-0.024l0.006,-0.025l0.005,-0.024l0.005,-0.024l0.005,-0.025l0.004,-0.024l0.004,-0.025l0.004,-0.025l0.003,-0.024l0.004,-0.025l0.003,-0.025l0.002,-0.025l0.003,-0.025l0.002,-0.025l0.002,-0.025l0.002,-0.025l0.001,-0.025l0.002,-0.025l0,-0.025l0.001,-0.026l0.001,-0.025l0,-0.025l0,-0.027l-0.001,-0.026l0,-0.026l-0.001,-0.026l-0.001,-0.026l-0.001,-0.025l-0.002,-0.026l-0.002,-0.025l-0.002,-0.025l-0.002,-0.024l-0.002,-0.025l-0.003,-0.024l-0.003,-0.024l-0.003,-0.023l-0.003,-0.024l-0.004,-0.023l-0.004,-0.024l-0.004,-0.023l-0.004,-0.022l-0.005,-0.023l-0.004,-0.022l-0.005,-0.023l-0.005,-0.022l-0.006,-0.021l-0.006,-0.022l-0.006,-0.022l-0.006,-0.021l-0.006,-0.021l-0.007,-0.021l-0.007,-0.021l-0.007,-0.02l-0.007,-0.021l-0.008,-0.02l-0.008,-0.02l-0.008,-0.02l-0.008,-0.02l-0.009,-0.02l-0.008,-0.019l-0.01,-0.02l-0.009,-0.019l-0.009,-0.019l-0.01,-0.019l-0.01,-0.018l-0.01,-0.019l-0.011,-0.019l-0.011,-0.018l-0.011,-0.018l-0.011,-0.018l-0.011,-0.018l-0.012,-0.018l-0.012,-0.018l-0.012,-0.017l-0.013,-0.018l-0.013,-0.017l-0.013,-0.017l-0.013,-0.018l-0.013,-0.017l-0.014,-0.017l-0.014,-0.016l-0.014,-0.017l-0.015,-0.017l-0.014,-0.016l-0.015,-0.016l-0.015,-0.017l-0.016,-0.016l-0.016,-0.016l-0.015,-0.016l-0.017,-0.016l-0.016,-0.016l-0.017,-0.016l-0.017,-0.015l-0.017,-0.016l-0.018,-0.015l-0.017,-0.016l-0.018,-0.015l-0.018,-0.015l-0.019,-0.016l-0.019,-0.015l-0.019,-0.015l-0.019,-0.015l-0.019,-0.015l-0.02,-0.015l-0.02,-0.015l-0.02,-0.015l-0.021,-0.014l-0.021,-0.015l-0.021,-0.015l-0.021,-0.014l-0.022,-0.015l-0.022,-0.014l-0.022,-0.015l-0.022,-0.014l-0.023,-0.015l-0.022,-0.014l-0.024,-0.015l-0.023,-0.014l-0.024,-0.014l-0.024,-0.015l-0.024,-0.014l-0.024,-0.014l-0.025,-0.014l-0.025,-0.014l-0.025,-0.015l-0.026,-0.014l-0.025,-0.014l-0.026,-0.014l-0.027,-0.014l-0.026,-0.015l-0.027,-0.014l-0.027,-0.014l-0.027,-0.014l-0.028,-0.014l-0.028,-0.015l-0.028,-0.014l-0.028,-0.014l-0.029,-0.014l-0.029,-0.015l-0.029,-0.014l-0.03,-0.014l-0.03,-0.014l-0.03,-0.015l-0.03,-0.014l-0.03,-0.015l-0.031,-0.014l-0.031,-0.015l-0.032,-0.014l-0.063,-0.029l-0.588,-0.264l-0.036,-0.016l-0.034,-0.017l-0.035,-0.016l-0.033,-0.016l-0.034,-0.015l-0.033,-0.016l-0.032,-0.016l-0.032,-0.015l-0.031,-0.016l-0.031,-0.015l-0.031,-0.016l-0.03,-0.015l-0.029,-0.016l-0.029,-0.015l-0.029,-0.015l-0.028,-0.015l-0.027,-0.016l-0.027,-0.015l-0.027,-0.015l-0.026,-0.015l-0.025,-0.016l-0.025,-0.015l-0.012,-0.008l-0.012,-0.007l-0.012,-0.008l-0.012,-0.008l-0.012,-0.007l-0.012,-0.008l-0.011,-0.008l-0.011,-0.008l-0.012,-0.007l-0.011,-0.008l-0.011,-0.008l-0.01,-0.008l-0.011,-0.008l-0.011,-0.008l-0.01,-0.007l-0.01,-0.008l-0.01,-0.008l-0.01,-0.008l-0.01,-0.008l-0.01,-0.008l-0.009,-0.008l-0.01,-0.008l-0.009,-0.008l-0.009,-0.009l-0.009,-0.008l-0.009,-0.008l-0.009,-0.008l-0.008,-0.008l-0.009,-0.009l-0.008,-0.008l-0.008,-0.008l-0.008,-0.009l-0.008,-0.008l-0.008,-0.008l-0.008,-0.009l-0.007,-0.008l-0.007,-0.009l-0.007,-0.009l-0.007,-0.008l-0.007,-0.009l-0.007,-0.009l-0.007,-0.009l-0.006,-0.008l-0.006,-0.009l-0.006,-0.009l-0.006,-0.009l-0.006,-0.009l-0.006,-0.009l-0.005,-0.009l-0.006,-0.01l-0.005,-0.009l-0.005,-0.009l-0.005,-0.009l-0.005,-0.01l-0.005,-0.009l-0.004,-0.01l-0.004,-0.009l-0.005,-0.01l-0.004,-0.01l-0.003,-0.009l-0.004,-0.01l-0.004,-0.01l-0.003,-0.01l-0.003,-0.01l-0.003,-0.01l-0.003,-0.01l-0.003,-0.011l-0.003,-0.01l-0.002,-0.01l-0.003,-0.011l-0.002,-0.01l-0.002,-0.011l-0.002,-0.01l-0.001,-0.011l-0.002,-0.011l-0.001,-0.011l-0.001,-0.011l-0.001,-0.011l-0.001,-0.011l-0.001,-0.011l-0.001,-0.011l0,-0.011l0,-0.012l0,-0.011l0,-0.011l0,-0.01l0,-0.01l0.001,-0.01l0,-0.011l0.001,-0.01l0.001,-0.01l0,-0.01l0.001,-0.01l0.002,-0.01l0.001,-0.01l0.001,-0.01l0.002,-0.01l0.001,-0.009l0.002,-0.01l0.002,-0.01l0.002,-0.009l0.002,-0.01l0.002,-0.009l0.002,-0.01l0.003,-0.009l0.002,-0.009l0.003,-0.01l0.003,-0.009l0.003,-0.009l0.003,-0.009l0.003,-0.009l0.003,-0.009l0.003,-0.009l0.004,-0.009l0.003,-0.009l0.004,-0.009l0.004,-0.008l0.004,-0.009l0.004,-0.008l0.004,-0.009l0.004,-0.008l0.005,-0.009l0.004,-0.008l0.005,-0.008l0.005,-0.008l0.004,-0.008l0.005,-0.008l0.006,-0.008l0.005,-0.008l0.005,-0.008l0.006,-0.008l0.005,-0.007l0.006,-0.008l0.006,-0.007l0.005,-0.008l0.006,-0.007l0.007,-0.008l0.006,-0.007l0.006,-0.007l0.007,-0.007l0.006,-0.007l0.007,-0.007l0.007,-0.007l0.007,-0.006l0.007,-0.007l0.007,-0.007l0.007,-0.006l0.008,-0.007l0.007,-0.006l0.008,-0.006l0.008,-0.007l0.007,-0.006l0.008,-0.006l0.008,-0.006l0.009,-0.005l0.008,-0.006l0.008,-0.006l0.009,-0.006l0.009,-0.005l0.008,-0.005l0.009,-0.006l0.009,-0.005l0.009,-0.005l0.009,-0.005l0.01,-0.005l0.009,-0.005l0.01,-0.005l0.009,-0.005l0.01,-0.004l0.01,-0.005l0.01,-0.004l0.01,-0.005l0.01,-0.004l0.011,-0.004l0.01,-0.004l0.011,-0.004l0.011,-0.004l0.01,-0.003l0.011,-0.004l0.011,-0.004l0.011,-0.003l0.012,-0.003l0.011,-0.004l0.011,-0.003l0.012,-0.003l0.012,-0.003l0.012,-0.003l0.011,-0.002l0.012,-0.003l0.013,-0.003l0.012,-0.002l0.012,-0.002l0.013,-0.002l0.012,-0.003l0.013,-0.002l0.013,-0.001l0.013,-0.002l0.013,-0.002l0.013,-0.001l0.013,-0.002l0.013,-0.001l0.014,-0.001l0.013,-0.001l0.014,-0.001l0.014,-0.001l0.014,-0.001l0.014,-0.001l0.014,0l0.014,-0.001l0.015,0l0.014,0l0.015,0l0.031,0l0.031,0.001l0.031,0.001l0.031,0.002l0.031,0.002l0.03,0.002l0.03,0.003l0.03,0.004l0.03,0.004l0.03,0.004l0.029,0.005l0.029,0.005l0.029,0.006l0.029,0.006l0.029,0.006l0.028,0.007l0.028,0.007l0.028,0.007l0.028,0.008l0.027,0.008l0.027,0.009l0.027,0.009l0.027,0.009l0.027,0.009l0.026,0.01l0.026,0.01l0.026,0.011l0.026,0.011l0.025,0.011l0.025,0.011l0.025,0.011l0.025,0.012l0.025,0.012l0.024,0.013l0.024,0.012l0.024,0.013l0.023,0.013l0.023,0.013l0.024,0.014l0.022,0.013l0.023,0.014l0.022,0.014l0.022,0.015l0.022,0.014l0.022,0.014l0.021,0.015l0.021,0.015l0.021,0.015l0.02,0.015l0.02,0.016l0.02,0.015l0.02,0.015l0.019,0.016l0.02,0.016l0.019,0.016l0.018,0.015l0.019,0.016l0.018,0.016l0.018,0.017l0.017,0.016l0.017,0.016l0.017,0.016l0.017,0.016l0.017,0.017l1.044,-1.236l-0.005,-0.007l-0.006,-0.007l-0.006,-0.008l-0.007,-0.008l-0.007,-0.009l-0.008,-0.01l-0.009,-0.01l-0.01,-0.011l-0.01,-0.011l-0.011,-0.012l-0.011,-0.012l-0.012,-0.013l-0.013,-0.013l-0.014,-0.014l-0.014,-0.014l-0.015,-0.014l-0.016,-0.015l-0.016,-0.015l-0.018,-0.016l-0.018,-0.015l-0.018,-0.016l-0.02,-0.017l-0.02,-0.016l-0.021,-0.017l-0.01,-0.008l-0.011,-0.009l-0.011,-0.008l-0.011,-0.009l-0.012,-0.009l-0.012,-0.008l-0.011,-0.009l-0.012,-0.009l-0.013,-0.009l-0.012,-0.008l-0.013,-0.009l-0.012,-0.009l-0.013,-0.009l-0.013,-0.009l-0.014,-0.009l-0.013,-0.009l-0.014,-0.009l-0.014,-0.009l-0.014,-0.009l-0.014,-0.009l-0.015,-0.008l-0.015,-0.009l-0.015,-0.009l-0.015,-0.009l-0.015,-0.009l-0.016,-0.009l-0.015,-0.009l-0.016,-0.009l-0.016,-0.009l-0.016,-0.009l-0.017,-0.009l-0.017,-0.008l-0.017,-0.009l-0.017,-0.009l-0.017,-0.009l-0.017,-0.008l-0.018,-0.009l-0.018,-0.008l-0.018,-0.009l-0.019,-0.008l-0.018,-0.009l-0.019,-0.008l-0.019,-0.009l-0.019,-0.008l-0.019,-0.008l-0.02,-0.008l-0.02,-0.008l-0.019,-0.008l-0.021,-0.008l-0.02,-0.008l-0.021,-0.008l-0.02,-0.008l-0.021,-0.007l-0.022,-0.008l-0.021,-0.008l-0.022,-0.007l-0.022,-0.007l-0.022,-0.008l-0.022,-0.007l-0.023,-0.007l-0.022,-0.007l-0.023,-0.006l-0.023,-0.007l-0.024,-0.007l-0.023,-0.006l-0.024,-0.007l-0.024,-0.006l-0.024,-0.006l-0.025,-0.006l-0.024,-0.006l-0.025,-0.006l-0.025,-0.006l-0.026,-0.005l-0.025,-0.006l-0.026,-0.005l-0.026,-0.005l-0.026,-0.005l-0.027,-0.005l-0.026,-0.005l-0.027,-0.004l0.036,-1.536l-1.464,0Z" style="fill:#fff;"/></g></g><path d="M270.014,171.97c-16.583,-2.627 -33.477,-2.627 -50.06,0c-3.387,8.297 -5.627,16.893 -6.719,25.788c-13.876,3.331 -27.143,8.826 -39.311,16.283c-7.062,-5.518 -14.724,-10.012 -22.986,-13.484c-13.583,9.869 -25.528,21.814 -35.397,35.397c3.472,8.262 7.966,15.924 13.484,22.986c-7.457,12.168 -12.952,25.435 -16.283,39.311c-8.895,1.092 -17.491,3.332 -25.788,6.719c-2.627,16.583 -2.627,33.477 0,50.06c8.297,3.387 16.893,5.627 25.788,6.719c3.331,13.876 8.826,27.143 16.283,39.311c-5.518,7.062 -10.012,14.724 -13.484,22.986c9.869,13.583 21.814,25.528 35.397,35.397c8.262,-3.472 15.924,-7.966 22.986,-13.484c12.168,7.457 25.435,12.952 39.311,16.283c1.092,8.895 3.332,17.491 6.719,25.788c16.583,2.627 33.477,2.627 50.06,0c3.387,-8.297 5.627,-16.893 6.719,-25.788c13.876,-3.331 27.143,-8.826 39.311,-16.283c7.062,5.518 14.724,10.012 22.986,13.484c13.583,-9.869 25.528,-21.814 35.397,-35.397c-3.472,-8.262 -7.966,-15.924 -13.484,-22.986c7.457,-12.168 12.952,-25.435 16.283,-39.311c8.895,-1.092 17.491,-3.332 25.788,-6.719c2.627,-16.583 2.627,-33.477 0,-50.06c-8.297,-3.387 -16.893,-5.627 -25.788,-6.719c-3.331,-13.876 -8.826,-27.143 -16.283,-39.311c5.518,-7.062 10.012,-14.724 13.484,-22.986c-9.869,-13.583 -21.814,-25.528 -35.397,-35.397c-8.262,3.472 -15.924,7.966 -22.986,13.484c-12.168,-7.457 -25.435,-12.952 -39.311,-16.283c-1.092,-8.895 -3.332,-17.491 -6.719,-25.788Zm-25.03,54.03c57.399,0 104,46.601 104,104c0,57.399 -46.601,104 -104,104c-57.399,0 -104,-46.601 -104,-104c0,-57.399 46.601,-104 104,-104Z" style="fill:#697584;"/><text x="454.024px" y="358.032px" style="font-family:'Lato-Black', 'Lato', sans-serif;font-weight:900;font-size:96px;fill:#fff;">T<tspan x="501.928px 557.608px " y="358.032px 358.032px ">ot</tspan>al Econom<tspan x="1042.31px " y="358.032px ">y</tspan></text><defs><linearGradient id="_Linear1" x1="0" y1="0" x2="1" y2="0" gradientUnits="userSpaceOnUse" gradientTransform="matrix(1180,660,-660,1180,0,0)"><stop offset="0" style="stop-color:#ffcd29;stop-opacity:1"/><stop offset="1" style="stop-color:#efeb6c;stop-opacity:1"/></linearGradient></defs></svg>