<?xml version="1.0" encoding="UTF-8" standalone="no"?><!DOCTYPE svg PUBLIC "-//W3C//DTD SVG 1.1//EN" "http://www.w3.org/Graphics/SVG/1.1/DTD/svg11.dtd"><svg width="100%" height="100%" viewBox="0 0 1180 660" version="1.1" xmlns="http://www.w3.org/2000/svg" xmlns:xlink="http://www.w3.org/1999/xlink" xml:space="preserve" xmlns:serif="http://www.serif.com/" style="fill-rule:evenodd;clip-rule:evenodd;stroke-linejoin:round;stroke-miterlimit:1.41421;"><rect x="0" y="0" width="1180" height="660" style="fill:url(#_Linear1);"/><g><ellipse cx="245.03" cy="330" rx="110" ry="110.5" style="fill:#ffd95b;"/><path d="M253.32,385.5l-0.352,-15.891c14.061,-2.687 21.091,-12.385 21.091,-22.901c0,-11.1 -6.093,-16.007 -19.45,-22.083l-5.742,-2.57c-7.382,-3.389 -11.717,-5.959 -11.717,-10.75c0,-4.323 3.164,-7.478 9.257,-7.478c6.561,0 11.834,3.272 15.232,6.66l10.194,-12.034c-0.938,-1.286 -6.21,-7.128 -17.459,-8.997l0.352,-14.956l-14.295,0l0.468,14.956c-12.185,2.22 -21.559,10.632 -21.559,23.251c0,9.348 5.038,16.592 17.224,21.967l7.03,3.154c9.023,4.09 12.772,6.076 12.772,10.75c0,4.206 -3.281,7.244 -9.959,7.244c-9.491,0 -17.108,-5.375 -20.623,-8.646l-9.725,13.086c3.281,2.921 10.545,8.646 23.317,9.932l-0.351,15.306l14.295,0Z" style="fill:#fff;fill-rule:nonzero;"/><path d="M255.015,272.521l0.282,0.062l0.271,0.103l0.253,0.141l0.23,0.176l0.203,0.207l0.17,0.234l0.135,0.256l0.096,0.274l0.056,0.284l0.014,0.289l-0.311,13.258l0.173,0.036l0.26,0.057l0.258,0.059l0.257,0.059l0.254,0.061l0.251,0.062l0.25,0.064l0.247,0.064l0.246,0.066l0.243,0.067l0.241,0.068l0.239,0.069l0.237,0.071l0.234,0.071l0.233,0.073l0.23,0.073l0.228,0.075l0.227,0.075l0.224,0.077l0.221,0.077l0.22,0.078l0.218,0.079l0.215,0.08l0.214,0.081l0.211,0.081l0.209,0.083l0.207,0.083l0.205,0.084l0.203,0.084l0.201,0.085l0.199,0.086l0.197,0.086l0.194,0.087l0.193,0.088l0.19,0.088l0.189,0.089l0.186,0.089l0.184,0.089l0.183,0.09l0.18,0.091l0.178,0.091l0.176,0.091l0.174,0.091l0.172,0.092l0.17,0.092l0.168,0.093l0.166,0.092l0.164,0.093l0.162,0.093l0.16,0.093l0.158,0.093l0.156,0.094l0.154,0.093l0.302,0.187l0.294,0.187l0.287,0.187l0.278,0.186l0.271,0.186l0.262,0.185l0.255,0.184l0.248,0.183l0.24,0.182l0.232,0.18l0.115,0.09l0.219,0.176l0.213,0.175l0.206,0.172l0.199,0.171l0.191,0.167l0.184,0.165l0.176,0.161l0.17,0.159l0.162,0.155l0.155,0.151l0.148,0.147l0.141,0.144l0.134,0.139l0.127,0.135l0.121,0.13l0.113,0.126l0.107,0.121l0.101,0.117l0.094,0.111l0.088,0.106l0.081,0.102l0.147,0.188l0.055,0.075l0.145,0.226l0.114,0.243l0.079,0.255l0.045,0.265l0.01,0.267l-0.027,0.267l-0.062,0.261l-0.096,0.25l-0.129,0.235l-0.159,0.215l-10.194,12.035l-0.191,0.197l-0.217,0.168l-0.237,0.138l-0.254,0.104l-0.266,0.067l-0.273,0.031l-0.274,-0.006l-0.271,-0.044l-0.262,-0.081l-0.249,-0.116l-0.23,-0.149l-0.208,-0.179l-0.154,-0.152l-0.15,-0.146l-0.153,-0.145l-0.155,-0.145l-0.158,-0.145l-0.16,-0.144l-0.162,-0.144l-0.166,-0.143l-0.167,-0.142l-0.17,-0.142l-0.172,-0.14l-0.175,-0.14l-0.176,-0.139l-0.18,-0.137l-0.181,-0.137l-0.184,-0.135l-0.186,-0.135l-0.188,-0.132l-0.191,-0.132l-0.192,-0.129l-0.195,-0.129l-0.197,-0.126l-0.199,-0.126l-0.201,-0.123l-0.204,-0.121l-0.208,-0.121l-0.1,-0.058l-0.104,-0.059l-0.105,-0.058l-0.105,-0.057l-0.105,-0.057l-0.106,-0.057l-0.107,-0.056l-0.107,-0.055l-0.107,-0.055l-0.108,-0.054l-0.109,-0.054l-0.109,-0.053l-0.109,-0.053l-0.11,-0.052l-0.111,-0.051l-0.111,-0.051l-0.111,-0.05l-0.112,-0.05l-0.112,-0.049l-0.113,-0.048l-0.113,-0.048l-0.114,-0.047l-0.114,-0.046l-0.115,-0.046l-0.115,-0.045l-0.116,-0.044l-0.116,-0.044l-0.116,-0.043l-0.118,-0.042l-0.117,-0.042l-0.118,-0.04l-0.118,-0.04l-0.119,-0.04l-0.12,-0.038l-0.119,-0.038l-0.12,-0.037l-0.121,-0.037l-0.121,-0.035l-0.122,-0.035l-0.122,-0.034l-0.122,-0.033l-0.123,-0.032l-0.123,-0.032l-0.124,-0.031l-0.125,-0.03l-0.124,-0.029l-0.125,-0.028l-0.126,-0.027l-0.126,-0.027l-0.126,-0.026l-0.127,-0.025l-0.128,-0.023l-0.128,-0.024l-0.128,-0.022l-0.128,-0.021l-0.129,-0.02l-0.13,-0.02l-0.13,-0.018l-0.13,-0.018l-0.131,-0.016l-0.132,-0.016l-0.131,-0.015l-0.133,-0.014l-0.132,-0.012l-0.133,-0.012l-0.134,-0.011l-0.134,-0.01l-0.134,-0.009l-0.135,-0.008l-0.135,-0.007l-0.136,-0.005l-0.136,-0.005l-0.137,-0.004l-0.137,-0.002l-0.137,-0.002l-0.138,-0.001l-0.127,0.001l-0.124,0.001l-0.124,0.003l-0.122,0.003l-0.121,0.005l-0.12,0.005l-0.118,0.007l-0.118,0.007l-0.116,0.009l-0.115,0.009l-0.113,0.01l-0.113,0.011l-0.111,0.012l-0.109,0.013l-0.109,0.014l-0.107,0.015l-0.107,0.015l-0.104,0.017l-0.104,0.017l-0.103,0.018l-0.101,0.019l-0.099,0.019l-0.099,0.021l-0.097,0.021l-0.097,0.022l-0.095,0.023l-0.093,0.023l-0.093,0.024l-0.091,0.025l-0.09,0.026l-0.089,0.026l-0.087,0.027l-0.087,0.028l-0.085,0.029l-0.084,0.029l-0.083,0.029l-0.081,0.031l-0.08,0.031l-0.08,0.031l-0.078,0.032l-0.077,0.033l-0.075,0.034l-0.075,0.033l-0.073,0.035l-0.072,0.035l-0.072,0.036l-0.069,0.036l-0.069,0.036l-0.068,0.037l-0.067,0.038l-0.065,0.038l-0.065,0.039l-0.063,0.039l-0.062,0.039l-0.061,0.041l-0.061,0.04l-0.059,0.041l-0.058,0.042l-0.057,0.041l-0.056,0.043l-0.055,0.043l-0.055,0.043l-0.053,0.043l-0.052,0.044l-0.051,0.045l-0.051,0.045l-0.049,0.045l-0.048,0.046l-0.048,0.046l-0.047,0.047l-0.045,0.047l-0.045,0.047l-0.044,0.048l-0.044,0.049l-0.042,0.048l-0.041,0.05l-0.041,0.049l-0.04,0.05l-0.039,0.051l-0.038,0.051l-0.037,0.051l-0.037,0.052l-0.036,0.052l-0.035,0.053l-0.034,0.054l-0.034,0.053l-0.033,0.054l-0.031,0.055l-0.032,0.055l-0.03,0.056l-0.03,0.056l-0.029,0.057l-0.028,0.057l-0.028,0.058l-0.026,0.059l-0.026,0.058l-0.026,0.06l-0.024,0.06l-0.024,0.06l-0.023,0.062l-0.023,0.062l-0.021,0.062l-0.021,0.062l-0.02,0.064l-0.019,0.064l-0.019,0.065l-0.018,0.065l-0.017,0.066l-0.016,0.066l-0.015,0.067l-0.015,0.068l-0.014,0.068l-0.013,0.069l-0.012,0.069l-0.012,0.07l-0.01,0.071l-0.01,0.072l-0.009,0.072l-0.009,0.072l-0.007,0.073l-0.006,0.074l-0.006,0.075l-0.005,0.075l-0.004,0.075l-0.003,0.077l-0.002,0.077l-0.002,0.077l0,0.077l0.002,0.167l0.007,0.161l0.012,0.157l0.016,0.153l0.02,0.15l0.024,0.146l0.028,0.143l0.033,0.14l0.036,0.138l0.041,0.136l0.045,0.134l0.049,0.132l0.053,0.131l0.058,0.13l0.062,0.129l0.067,0.129l0.072,0.129l0.077,0.128l0.081,0.128l0.088,0.129l0.092,0.128l0.098,0.129l0.104,0.13l0.109,0.129l0.116,0.131l0.121,0.131l0.127,0.131l0.134,0.132l0.139,0.132l0.146,0.133l0.152,0.133l0.159,0.134l0.164,0.134l0.171,0.134l0.177,0.135l0.183,0.136l0.189,0.136l0.196,0.136l0.202,0.137l0.207,0.137l0.214,0.137l0.218,0.137l0.228,0.14l0.232,0.139l0.237,0.139l0.244,0.14l0.249,0.141l0.255,0.141l0.261,0.142l0.266,0.142l0.272,0.143l0.277,0.144l0.283,0.144l0.288,0.146l0.294,0.146l0.299,0.147l0.304,0.148l0.31,0.15l0.314,0.15l0.32,0.151l0.325,0.153l0.33,0.154l0.335,0.155l0.332,0.153l5.739,2.569l0.631,0.289l0.312,0.144l0.308,0.143l0.306,0.142l0.303,0.143l0.3,0.142l0.298,0.142l0.296,0.142l0.293,0.142l0.291,0.142l0.288,0.142l0.286,0.141l0.284,0.142l0.281,0.141l0.278,0.142l0.277,0.141l0.273,0.142l0.272,0.142l0.269,0.142l0.266,0.142l0.265,0.142l0.261,0.142l0.26,0.143l0.257,0.142l0.255,0.143l0.252,0.144l0.25,0.143l0.247,0.144l0.246,0.145l0.243,0.145l0.24,0.145l0.238,0.145l0.236,0.146l0.234,0.147l0.231,0.147l0.229,0.148l0.227,0.148l0.224,0.149l0.222,0.15l0.22,0.15l0.217,0.151l0.215,0.152l0.213,0.153l0.211,0.153l0.208,0.154l0.206,0.155l0.203,0.156l0.202,0.157l0.198,0.157l0.197,0.159l0.194,0.16l0.192,0.16l0.19,0.162l0.187,0.163l0.185,0.164l0.183,0.165l0.18,0.166l0.178,0.167l0.176,0.168l0.173,0.17l0.171,0.171l0.168,0.172l0.167,0.174l0.163,0.175l0.161,0.176l0.159,0.178l0.157,0.179l0.154,0.18l0.151,0.182l0.149,0.183l0.147,0.185l0.144,0.186l0.141,0.187l0.139,0.189l0.136,0.191l0.134,0.192l0.132,0.194l0.128,0.195l0.126,0.197l0.124,0.198l0.121,0.2l0.118,0.201l0.116,0.203l0.113,0.205l0.11,0.206l0.108,0.207l0.105,0.21l0.102,0.211l0.1,0.212l0.097,0.214l0.094,0.216l0.092,0.217l0.088,0.219l0.086,0.22l0.084,0.222l0.081,0.223l0.078,0.225l0.075,0.227l0.073,0.228l0.07,0.23l0.067,0.232l0.065,0.233l0.062,0.235l0.059,0.236l0.057,0.238l0.054,0.239l0.051,0.242l0.049,0.242l0.046,0.245l0.043,0.246l0.041,0.248l0.039,0.249l0.035,0.251l0.034,0.253l0.03,0.255l0.028,0.256l0.026,0.258l0.023,0.26l0.021,0.261l0.018,0.264l0.016,0.265l0.013,0.267l0.011,0.268l0.008,0.271l0.006,0.273l0.004,0.274l0.001,0.277l-0.001,0.267l-0.005,0.267l-0.007,0.266l-0.009,0.267l-0.013,0.266l-0.015,0.265l-0.018,0.266l-0.021,0.265l-0.024,0.264l-0.027,0.264l-0.029,0.264l-0.032,0.263l-0.035,0.263l-0.038,0.262l-0.041,0.262l-0.043,0.261l-0.047,0.26l-0.049,0.26l-0.052,0.259l-0.054,0.259l-0.058,0.258l-0.06,0.257l-0.064,0.257l-0.066,0.256l-0.068,0.255l-0.072,0.254l-0.075,0.254l-0.077,0.253l-0.08,0.252l-0.083,0.251l-0.086,0.25l-0.088,0.249l-0.092,0.249l-0.094,0.247l-0.097,0.247l-0.1,0.245l-0.103,0.245l-0.105,0.243l-0.109,0.243l-0.111,0.241l-0.114,0.241l-0.117,0.239l-0.119,0.238l-0.123,0.237l-0.125,0.236l-0.128,0.234l-0.131,0.233l-0.134,0.232l-0.136,0.231l-0.139,0.23l-0.143,0.228l-0.145,0.227l-0.147,0.225l-0.151,0.224l-0.153,0.223l-0.156,0.221l-0.159,0.22l-0.162,0.219l-0.164,0.217l-0.168,0.215l-0.17,0.214l-0.172,0.212l-0.176,0.211l-0.178,0.209l-0.181,0.208l-0.184,0.205l-0.187,0.205l-0.189,0.202l-0.192,0.201l-0.195,0.199l-0.198,0.198l-0.2,0.195l-0.203,0.194l-0.206,0.192l-0.208,0.19l-0.212,0.189l-0.213,0.186l-0.217,0.185l-0.219,0.182l-0.222,0.181l-0.225,0.179l-0.228,0.177l-0.23,0.175l-0.232,0.173l-0.236,0.17l-0.238,0.169l-0.241,0.167l-0.243,0.165l-0.246,0.162l-0.249,0.161l-0.251,0.158l-0.254,0.156l-0.257,0.154l-0.259,0.152l-0.262,0.15l-0.264,0.147l-0.267,0.145l-0.267,0.142l-0.139,0.072l-0.136,0.07l-0.137,0.07l-0.138,0.068l-0.138,0.069l-0.139,0.068l-0.14,0.067l-0.14,0.066l-0.141,0.066l-0.142,0.066l-0.142,0.064l-0.143,0.065l-0.144,0.063l-0.144,0.063l-0.145,0.063l-0.145,0.062l-0.146,0.061l-0.147,0.06l-0.147,0.06l-0.149,0.06l-0.148,0.059l-0.15,0.058l-0.15,0.058l-0.15,0.056l-0.151,0.057l-0.152,0.056l-0.153,0.055l-0.153,0.054l-0.153,0.054l-0.155,0.053l-0.155,0.053l-0.156,0.052l-0.156,0.051l-0.157,0.051l-0.158,0.05l-0.158,0.049l-0.159,0.049l-0.159,0.048l-0.16,0.048l-0.161,0.047l-0.161,0.046l-0.162,0.045l-0.163,0.045l-0.163,0.045l-0.164,0.043l-0.165,0.043l-0.165,0.042l-0.165,0.042l-0.167,0.041l-0.167,0.04l-0.044,0.011l0.315,14.237l-0.014,0.289l-0.056,0.284l-0.097,0.272l-0.135,0.257l-0.17,0.233l-0.203,0.207l-0.23,0.176l-0.253,0.14l-0.27,0.103l-0.283,0.062l-0.288,0.021l-14.295,0l-0.289,-0.021l-0.283,-0.062l-0.271,-0.103l-0.253,-0.141l-0.23,-0.175l-0.202,-0.207l-0.17,-0.234l-0.135,-0.257l-0.097,-0.273l-0.055,-0.284l-0.015,-0.289l0.31,-13.489l-0.289,-0.041l-0.297,-0.044l-0.294,-0.045l-0.293,-0.046l-0.29,-0.048l-0.288,-0.05l-0.287,-0.051l-0.284,-0.052l-0.283,-0.054l-0.28,-0.055l-0.278,-0.057l-0.277,-0.057l-0.275,-0.06l-0.272,-0.06l-0.271,-0.062l-0.269,-0.063l-0.266,-0.064l-0.265,-0.066l-0.263,-0.066l-0.261,-0.068l-0.259,-0.069l-0.257,-0.07l-0.255,-0.072l-0.253,-0.072l-0.251,-0.073l-0.25,-0.075l-0.247,-0.075l-0.246,-0.077l-0.243,-0.077l-0.242,-0.079l-0.24,-0.079l-0.237,-0.08l-0.236,-0.081l-0.234,-0.082l-0.232,-0.083l-0.231,-0.084l-0.228,-0.085l-0.226,-0.085l-0.225,-0.086l-0.223,-0.087l-0.221,-0.087l-0.219,-0.088l-0.217,-0.089l-0.215,-0.09l-0.213,-0.09l-0.212,-0.091l-0.209,-0.091l-0.208,-0.092l-0.206,-0.092l-0.204,-0.093l-0.202,-0.094l-0.201,-0.094l-0.199,-0.094l-0.196,-0.095l-0.195,-0.095l-0.193,-0.096l-0.191,-0.096l-0.19,-0.097l-0.187,-0.096l-0.186,-0.097l-0.184,-0.097l-0.183,-0.098l-0.18,-0.098l-0.179,-0.098l-0.176,-0.098l-0.176,-0.098l-0.173,-0.099l-0.171,-0.098l-0.17,-0.099l-0.168,-0.099l-0.166,-0.099l-0.165,-0.098l-0.162,-0.099l-0.161,-0.099l-0.159,-0.099l-0.158,-0.099l-0.156,-0.099l-0.154,-0.098l-0.151,-0.099l-0.151,-0.098l-0.149,-0.098l-0.149,-0.1l-0.287,-0.194l-0.282,-0.194l-0.275,-0.193l-0.268,-0.192l-0.262,-0.19l-0.255,-0.189l-0.248,-0.187l-0.241,-0.184l-0.235,-0.182l-0.229,-0.18l-0.221,-0.177l-0.215,-0.175l-0.209,-0.171l-0.202,-0.168l-0.195,-0.164l-0.189,-0.161l-0.182,-0.157l-0.176,-0.154l-0.17,-0.149l-0.16,-0.141l-0.207,-0.213l-0.173,-0.241l-0.135,-0.264l-0.095,-0.281l-0.052,-0.292l-0.009,-0.297l0.035,-0.294l0.079,-0.286l0.12,-0.271l0.159,-0.251l9.725,-13.086l0.182,-0.212l0.209,-0.185l0.234,-0.153l0.252,-0.12l0.267,-0.083l0.275,-0.046l0.28,-0.006l0.277,0.032l0.27,0.071l0.258,0.108l0.24,0.143l0.218,0.174l0.162,0.15l0.161,0.146l0.168,0.15l0.174,0.153l0.179,0.155l0.184,0.157l0.191,0.159l0.196,0.162l0.201,0.163l0.207,0.164l0.212,0.166l0.217,0.168l0.222,0.168l0.228,0.169l0.233,0.17l0.237,0.171l0.243,0.17l0.247,0.171l0.254,0.172l0.256,0.17l0.261,0.17l0.266,0.17l0.271,0.17l0.276,0.168l0.279,0.167l0.285,0.166l0.288,0.165l0.293,0.164l0.297,0.161l0.301,0.16l0.305,0.158l0.309,0.155l0.313,0.154l0.317,0.15l0.321,0.149l0.324,0.145l0.164,0.071l0.164,0.071l0.166,0.07l0.166,0.069l0.167,0.069l0.169,0.067l0.169,0.067l0.169,0.065l0.171,0.065l0.172,0.064l0.172,0.063l0.174,0.062l0.174,0.061l0.175,0.06l0.176,0.059l0.176,0.058l0.178,0.057l0.178,0.056l0.179,0.055l0.18,0.053l0.18,0.053l0.182,0.051l0.182,0.05l0.183,0.049l0.183,0.048l0.185,0.047l0.185,0.045l0.186,0.044l0.187,0.043l0.187,0.041l0.188,0.04l0.189,0.039l0.189,0.037l0.19,0.036l0.191,0.035l0.192,0.033l0.192,0.032l0.193,0.03l0.194,0.029l0.194,0.027l0.195,0.026l0.196,0.024l0.196,0.023l0.197,0.021l0.197,0.02l0.199,0.018l0.199,0.016l0.199,0.015l0.2,0.013l0.201,0.011l0.201,0.01l0.202,0.008l0.203,0.006l0.203,0.004l0.204,0.003l0.205,0.001l0.141,0l0.14,-0.002l0.139,-0.002l0.138,-0.004l0.136,-0.004l0.134,-0.006l0.133,-0.006l0.132,-0.008l0.131,-0.008l0.128,-0.009l0.128,-0.01l0.126,-0.011l0.125,-0.012l0.123,-0.013l0.122,-0.014l0.12,-0.014l0.12,-0.016l0.117,-0.016l0.116,-0.017l0.115,-0.018l0.114,-0.019l0.112,-0.019l0.11,-0.021l0.109,-0.021l0.108,-0.022l0.106,-0.022l0.105,-0.024l0.104,-0.024l0.102,-0.025l0.101,-0.025l0.099,-0.027l0.098,-0.027l0.097,-0.027l0.095,-0.029l0.093,-0.029l0.093,-0.029l0.091,-0.031l0.089,-0.03l0.088,-0.032l0.087,-0.032l0.086,-0.033l0.084,-0.033l0.083,-0.034l0.081,-0.034l0.08,-0.035l0.079,-0.035l0.077,-0.036l0.076,-0.037l0.075,-0.037l0.074,-0.037l0.072,-0.038l0.071,-0.038l0.07,-0.039l0.068,-0.039l0.067,-0.04l0.066,-0.04l0.064,-0.04l0.064,-0.041l0.062,-0.041l0.061,-0.042l0.06,-0.042l0.058,-0.043l0.058,-0.042l0.056,-0.043l0.055,-0.044l0.054,-0.044l0.053,-0.044l0.052,-0.044l0.051,-0.045l0.05,-0.045l0.048,-0.046l0.048,-0.045l0.046,-0.047l0.046,-0.046l0.044,-0.047l0.044,-0.047l0.043,-0.048l0.041,-0.047l0.041,-0.049l0.04,-0.048l0.039,-0.049l0.038,-0.049l0.037,-0.05l0.036,-0.05l0.035,-0.05l0.035,-0.051l0.033,-0.051l0.033,-0.051l0.032,-0.052l0.031,-0.053l0.03,-0.052l0.03,-0.053l0.029,-0.054l0.028,-0.054l0.027,-0.055l0.026,-0.055l0.026,-0.055l0.024,-0.056l0.025,-0.056l0.023,-0.057l0.022,-0.058l0.022,-0.058l0.021,-0.058l0.02,-0.059l0.019,-0.06l0.019,-0.06l0.018,-0.061l0.017,-0.061l0.016,-0.062l0.016,-0.062l0.014,-0.063l0.014,-0.064l0.014,-0.065l0.012,-0.065l0.011,-0.065l0.011,-0.066l0.01,-0.067l0.009,-0.067l0.008,-0.068l0.008,-0.069l0.006,-0.069l0.006,-0.07l0.005,-0.071l0.004,-0.072l0.003,-0.071l0.002,-0.073l0.002,-0.073l0,-0.074l0,-0.084l-0.002,-0.082l-0.003,-0.081l-0.003,-0.079l-0.005,-0.078l-0.005,-0.076l-0.007,-0.076l-0.007,-0.073l-0.009,-0.073l-0.009,-0.071l-0.011,-0.07l-0.011,-0.069l-0.012,-0.068l-0.013,-0.067l-0.014,-0.065l-0.014,-0.065l-0.016,-0.064l-0.016,-0.063l-0.018,-0.062l-0.018,-0.061l-0.019,-0.061l-0.02,-0.059l-0.021,-0.06l-0.022,-0.059l-0.022,-0.058l-0.024,-0.058l-0.025,-0.057l-0.025,-0.057l-0.027,-0.057l-0.028,-0.056l-0.029,-0.057l-0.03,-0.056l-0.031,-0.056l-0.032,-0.057l-0.033,-0.056l-0.035,-0.056l-0.036,-0.056l-0.037,-0.056l-0.039,-0.056l-0.04,-0.057l-0.042,-0.057l-0.043,-0.057l-0.044,-0.057l-0.046,-0.057l-0.047,-0.058l-0.049,-0.058l-0.051,-0.058l-0.053,-0.058l-0.054,-0.059l-0.055,-0.059l-0.058,-0.059l-0.059,-0.06l-0.061,-0.06l-0.063,-0.06l-0.064,-0.061l-0.067,-0.061l-0.068,-0.061l-0.07,-0.062l-0.073,-0.061l-0.074,-0.063l-0.075,-0.062l-0.078,-0.063l-0.08,-0.063l-0.082,-0.064l-0.083,-0.064l-0.086,-0.064l-0.087,-0.065l-0.09,-0.064l-0.091,-0.066l-0.094,-0.065l-0.095,-0.066l-0.097,-0.066l-0.1,-0.066l-0.101,-0.067l-0.104,-0.067l-0.105,-0.068l-0.107,-0.068l-0.11,-0.068l-0.111,-0.068l-0.114,-0.069l-0.115,-0.069l-0.115,-0.068l-0.243,-0.142l-0.249,-0.142l-0.257,-0.143l-0.265,-0.144l-0.273,-0.147l-0.281,-0.148l-0.288,-0.15l-0.297,-0.152l-0.305,-0.153l-0.313,-0.156l-0.321,-0.158l-0.329,-0.16l-0.337,-0.162l-0.345,-0.164l-0.353,-0.167l-0.36,-0.169l-0.369,-0.172l-0.377,-0.175l-0.385,-0.177l-0.795,-0.363l-0.824,-0.375l-7.022,-3.151l-0.286,-0.127l-0.292,-0.132l-0.289,-0.132l-0.287,-0.133l-0.284,-0.134l-0.282,-0.135l-0.279,-0.135l-0.277,-0.137l-0.274,-0.137l-0.272,-0.138l-0.269,-0.139l-0.267,-0.139l-0.265,-0.141l-0.262,-0.141l-0.259,-0.142l-0.257,-0.143l-0.255,-0.144l-0.252,-0.145l-0.25,-0.145l-0.248,-0.147l-0.245,-0.147l-0.243,-0.148l-0.24,-0.149l-0.238,-0.15l-0.235,-0.151l-0.233,-0.151l-0.231,-0.153l-0.229,-0.153l-0.226,-0.155l-0.223,-0.155l-0.221,-0.156l-0.219,-0.157l-0.217,-0.158l-0.214,-0.159l-0.212,-0.159l-0.209,-0.161l-0.207,-0.162l-0.205,-0.162l-0.203,-0.164l-0.2,-0.164l-0.197,-0.165l-0.196,-0.166l-0.193,-0.168l-0.191,-0.168l-0.188,-0.169l-0.186,-0.17l-0.184,-0.171l-0.181,-0.171l-0.179,-0.173l-0.177,-0.174l-0.174,-0.175l-0.172,-0.175l-0.17,-0.177l-0.168,-0.177l-0.165,-0.179l-0.162,-0.179l-0.161,-0.181l-0.158,-0.181l-0.156,-0.183l-0.153,-0.183l-0.151,-0.184l-0.149,-0.185l-0.146,-0.186l-0.144,-0.187l-0.142,-0.188l-0.14,-0.189l-0.137,-0.19l-0.134,-0.191l-0.133,-0.192l-0.13,-0.192l-0.128,-0.194l-0.125,-0.194l-0.123,-0.196l-0.121,-0.196l-0.118,-0.198l-0.116,-0.198l-0.114,-0.199l-0.111,-0.199l-0.109,-0.201l-0.107,-0.202l-0.105,-0.202l-0.102,-0.204l-0.099,-0.204l-0.098,-0.205l-0.095,-0.206l-0.092,-0.207l-0.091,-0.207l-0.088,-0.209l-0.086,-0.209l-0.083,-0.21l-0.081,-0.211l-0.079,-0.211l-0.077,-0.212l-0.074,-0.213l-0.072,-0.214l-0.07,-0.215l-0.067,-0.215l-0.066,-0.216l-0.062,-0.217l-0.061,-0.218l-0.059,-0.218l-0.056,-0.219l-0.054,-0.22l-0.051,-0.22l-0.05,-0.221l-0.047,-0.222l-0.045,-0.223l-0.043,-0.223l-0.041,-0.223l-0.038,-0.225l-0.037,-0.225l-0.034,-0.226l-0.032,-0.226l-0.03,-0.227l-0.027,-0.228l-0.026,-0.228l-0.024,-0.229l-0.021,-0.23l-0.019,-0.23l-0.018,-0.231l-0.015,-0.231l-0.013,-0.232l-0.011,-0.233l-0.009,-0.233l-0.007,-0.234l-0.005,-0.234l-0.003,-0.235l-0.001,-0.234l0,-0.161l0.002,-0.159l0.002,-0.159l0.003,-0.158l0.004,-0.158l0.005,-0.157l0.006,-0.157l0.007,-0.157l0.008,-0.156l0.009,-0.156l0.009,-0.156l0.011,-0.155l0.011,-0.155l0.013,-0.155l0.013,-0.154l0.014,-0.154l0.015,-0.153l0.016,-0.153l0.017,-0.153l0.017,-0.152l0.019,-0.152l0.019,-0.151l0.021,-0.151l0.021,-0.151l0.022,-0.15l0.023,-0.15l0.024,-0.15l0.025,-0.149l0.025,-0.148l0.027,-0.149l0.027,-0.148l0.028,-0.147l0.029,-0.147l0.03,-0.147l0.031,-0.146l0.031,-0.146l0.033,-0.145l0.033,-0.145l0.034,-0.145l0.035,-0.144l0.036,-0.144l0.037,-0.143l0.037,-0.143l0.039,-0.142l0.039,-0.142l0.04,-0.142l0.041,-0.141l0.041,-0.141l0.043,-0.14l0.043,-0.14l0.044,-0.139l0.045,-0.139l0.046,-0.139l0.046,-0.138l0.048,-0.137l0.048,-0.137l0.049,-0.137l0.049,-0.136l0.051,-0.136l0.051,-0.136l0.052,-0.134l0.053,-0.135l0.054,-0.134l0.054,-0.133l0.056,-0.133l0.056,-0.133l0.056,-0.132l0.058,-0.132l0.058,-0.131l0.059,-0.131l0.06,-0.13l0.061,-0.13l0.061,-0.129l0.062,-0.129l0.063,-0.128l0.064,-0.128l0.064,-0.127l0.065,-0.127l0.066,-0.126l0.067,-0.126l0.067,-0.126l0.068,-0.124l0.069,-0.125l0.069,-0.124l0.07,-0.123l0.071,-0.123l0.072,-0.123l0.072,-0.122l0.073,-0.121l0.074,-0.121l0.074,-0.12l0.075,-0.12l0.076,-0.12l0.077,-0.119l0.077,-0.118l0.078,-0.118l0.079,-0.117l0.079,-0.117l0.08,-0.117l0.08,-0.116l0.082,-0.115l0.082,-0.115l0.082,-0.114l0.083,-0.114l0.084,-0.113l0.085,-0.113l0.085,-0.112l0.086,-0.112l0.087,-0.111l0.087,-0.111l0.088,-0.11l0.088,-0.11l0.089,-0.109l0.09,-0.108l0.09,-0.108l0.093,-0.11l0.182,-0.211l0.186,-0.212l0.189,-0.209l0.191,-0.207l0.193,-0.205l0.196,-0.203l0.198,-0.2l0.201,-0.199l0.203,-0.196l0.205,-0.194l0.207,-0.192l0.21,-0.19l0.211,-0.187l0.214,-0.185l0.216,-0.184l0.218,-0.181l0.221,-0.178l0.222,-0.177l0.224,-0.174l0.227,-0.172l0.228,-0.17l0.231,-0.168l0.232,-0.165l0.235,-0.163l0.236,-0.161l0.238,-0.158l0.24,-0.157l0.242,-0.154l0.244,-0.152l0.245,-0.149l0.248,-0.148l0.249,-0.145l0.251,-0.143l0.252,-0.14l0.254,-0.138l0.256,-0.136l0.258,-0.134l0.259,-0.131l0.261,-0.13l0.263,-0.126l0.264,-0.125l0.266,-0.122l0.267,-0.12l0.269,-0.118l0.27,-0.115l0.272,-0.113l0.273,-0.11l0.274,-0.109l0.276,-0.106l0.278,-0.103l0.279,-0.102l0.28,-0.099l0.281,-0.096l0.283,-0.094l0.285,-0.092l0.285,-0.09l0.287,-0.087l0.288,-0.085l0.289,-0.083l0.29,-0.08l0.292,-0.077l0.293,-0.076l0.294,-0.073l0.295,-0.07l0.1,-0.023l-0.416,-13.276l0.012,-0.291l0.054,-0.286l0.095,-0.275l0.134,-0.259l0.17,-0.236l0.203,-0.209l0.23,-0.177l0.254,-0.142l0.272,-0.104l0.284,-0.063l0.291,-0.021l14.295,0l0.289,0.021Zm-14.584,1.979l0.468,14.956l-0.285,0.053l-0.284,0.055l-0.283,0.058l-0.282,0.06l-0.28,0.062l-0.28,0.065l-0.278,0.066l-0.278,0.069l-0.276,0.071l-0.275,0.074l-0.274,0.075l-0.272,0.078l-0.272,0.08l-0.27,0.082l-0.268,0.084l-0.268,0.087l-0.266,0.088l-0.264,0.091l-0.264,0.093l-0.262,0.095l-0.26,0.098l-0.259,0.099l-0.258,0.102l-0.256,0.104l-0.255,0.105l-0.253,0.108l-0.252,0.111l-0.25,0.112l-0.249,0.114l-0.247,0.117l-0.245,0.118l-0.244,0.121l-0.242,0.123l-0.241,0.124l-0.239,0.127l-0.237,0.129l-0.236,0.131l-0.233,0.133l-0.232,0.135l-0.231,0.138l-0.228,0.139l-0.227,0.141l-0.225,0.143l-0.223,0.146l-0.221,0.147l-0.219,0.149l-0.218,0.152l-0.215,0.153l-0.214,0.155l-0.211,0.158l-0.21,0.159l-0.208,0.161l-0.205,0.164l-0.204,0.165l-0.202,0.167l-0.199,0.169l-0.198,0.171l-0.195,0.173l-0.193,0.175l-0.191,0.177l-0.189,0.179l-0.187,0.181l-0.185,0.182l-0.182,0.185l-0.18,0.186l-0.178,0.189l-0.176,0.19l-0.173,0.192l-0.171,0.194l-0.169,0.196l-0.083,0.099l-0.083,0.099l-0.082,0.1l-0.082,0.1l-0.081,0.1l-0.081,0.101l-0.08,0.102l-0.079,0.102l-0.079,0.102l-0.078,0.103l-0.077,0.103l-0.077,0.104l-0.076,0.104l-0.076,0.105l-0.075,0.105l-0.074,0.105l-0.074,0.106l-0.073,0.107l-0.073,0.107l-0.072,0.107l-0.071,0.108l-0.071,0.109l-0.069,0.108l-0.07,0.109l-0.069,0.11l-0.068,0.11l-0.067,0.111l-0.067,0.111l-0.066,0.111l-0.065,0.112l-0.065,0.113l-0.064,0.112l-0.064,0.114l-0.063,0.113l-0.062,0.114l-0.061,0.115l-0.061,0.115l-0.06,0.116l-0.06,0.115l-0.058,0.117l-0.058,0.117l-0.058,0.117l-0.057,0.117l-0.056,0.119l-0.055,0.118l-0.055,0.119l-0.054,0.119l-0.053,0.12l-0.053,0.12l-0.051,0.121l-0.052,0.121l-0.05,0.122l-0.05,0.122l-0.049,0.122l-0.048,0.123l-0.048,0.123l-0.047,0.124l-0.046,0.124l-0.045,0.125l-0.045,0.125l-0.044,0.125l-0.043,0.126l-0.043,0.126l-0.042,0.127l-0.041,0.127l-0.04,0.128l-0.04,0.128l-0.039,0.128l-0.038,0.129l-0.037,0.129l-0.037,0.13l-0.036,0.13l-0.035,0.13l-0.034,0.131l-0.034,0.131l-0.033,0.132l-0.032,0.132l-0.031,0.133l-0.031,0.132l-0.029,0.134l-0.029,0.134l-0.028,0.134l-0.028,0.134l-0.027,0.135l-0.025,0.136l-0.026,0.136l-0.024,0.136l-0.023,0.136l-0.023,0.137l-0.022,0.138l-0.021,0.138l-0.02,0.138l-0.02,0.138l-0.019,0.14l-0.018,0.139l-0.017,0.14l-0.016,0.14l-0.015,0.141l-0.015,0.141l-0.014,0.141l-0.013,0.142l-0.012,0.142l-0.011,0.143l-0.011,0.143l-0.01,0.143l-0.009,0.144l-0.008,0.144l-0.007,0.145l-0.006,0.145l-0.006,0.145l-0.004,0.146l-0.004,0.146l-0.003,0.146l-0.002,0.147l-0.002,0.148l0,0.147l0.001,0.219l0.003,0.218l0.004,0.217l0.007,0.217l0.008,0.215l0.01,0.215l0.012,0.214l0.014,0.213l0.016,0.213l0.018,0.212l0.02,0.211l0.021,0.21l0.024,0.21l0.025,0.208l0.028,0.208l0.029,0.208l0.031,0.206l0.034,0.206l0.035,0.205l0.037,0.204l0.039,0.203l0.041,0.203l0.043,0.202l0.045,0.201l0.047,0.2l0.049,0.2l0.051,0.199l0.053,0.198l0.055,0.198l0.057,0.196l0.059,0.196l0.061,0.195l0.064,0.195l0.065,0.193l0.067,0.193l0.069,0.192l0.072,0.192l0.073,0.19l0.076,0.19l0.077,0.189l0.08,0.189l0.082,0.188l0.084,0.187l0.086,0.186l0.088,0.185l0.09,0.185l0.092,0.184l0.095,0.183l0.096,0.183l0.099,0.181l0.101,0.182l0.103,0.18l0.105,0.179l0.107,0.179l0.11,0.178l0.112,0.178l0.113,0.176l0.117,0.176l0.118,0.175l0.12,0.175l0.123,0.174l0.125,0.172l0.127,0.173l0.129,0.171l0.132,0.171l0.134,0.17l0.136,0.169l0.138,0.169l0.141,0.168l0.142,0.167l0.145,0.167l0.148,0.165l0.149,0.165l0.152,0.165l0.154,0.163l0.157,0.163l0.159,0.162l0.161,0.161l0.163,0.161l0.166,0.16l0.168,0.159l0.171,0.159l0.172,0.158l0.175,0.157l0.178,0.156l0.18,0.156l0.182,0.155l0.184,0.154l0.187,0.154l0.19,0.152l0.191,0.153l0.194,0.151l0.197,0.151l0.199,0.15l0.201,0.149l0.204,0.148l0.206,0.148l0.209,0.147l0.211,0.147l0.213,0.146l0.216,0.145l0.218,0.144l0.221,0.144l0.223,0.143l0.226,0.142l0.228,0.141l0.231,0.141l0.233,0.14l0.236,0.14l0.238,0.139l0.241,0.138l0.243,0.137l0.246,0.137l0.248,0.136l0.251,0.135l0.254,0.135l0.255,0.133l0.259,0.134l0.261,0.132l0.263,0.132l0.267,0.131l0.268,0.131l0.272,0.129l0.274,0.129l0.276,0.129l0.279,0.127l0.282,0.127l0.284,0.127l7.03,3.154l0.831,0.378l0.8,0.366l0.388,0.179l0.381,0.176l0.374,0.174l0.366,0.172l0.358,0.169l0.351,0.168l0.344,0.165l0.336,0.164l0.329,0.161l0.322,0.16l0.315,0.159l0.307,0.157l0.3,0.156l0.294,0.154l0.286,0.154l0.278,0.152l0.272,0.152l0.265,0.151l0.258,0.15l0.251,0.149l0.244,0.15l0.238,0.148l0.23,0.149l0.224,0.148l0.217,0.149l0.21,0.148l0.204,0.149l0.197,0.149l0.19,0.15l0.184,0.15l0.177,0.15l0.171,0.152l0.164,0.152l0.158,0.153l0.151,0.155l0.145,0.155l0.139,0.157l0.132,0.158l0.126,0.16l0.12,0.161l0.114,0.164l0.107,0.165l0.102,0.167l0.095,0.169l0.09,0.171l0.083,0.173l0.077,0.176l0.072,0.179l0.065,0.181l0.06,0.184l0.053,0.186l0.048,0.19l0.043,0.193l0.036,0.195l0.031,0.199l0.025,0.203l0.019,0.206l0.014,0.209l0.008,0.214l0.003,0.217l0,0.098l-0.002,0.098l-0.003,0.098l-0.005,0.097l-0.005,0.096l-0.007,0.097l-0.007,0.095l-0.009,0.095l-0.011,0.095l-0.011,0.094l-0.013,0.094l-0.013,0.094l-0.016,0.092l-0.016,0.093l-0.017,0.092l-0.019,0.091l-0.02,0.091l-0.021,0.09l-0.022,0.09l-0.024,0.089l-0.024,0.089l-0.026,0.088l-0.027,0.087l-0.029,0.087l-0.029,0.087l-0.031,0.086l-0.032,0.085l-0.033,0.085l-0.034,0.084l-0.036,0.084l-0.037,0.083l-0.038,0.082l-0.039,0.082l-0.041,0.081l-0.041,0.081l-0.043,0.08l-0.044,0.08l-0.045,0.078l-0.047,0.078l-0.048,0.078l-0.049,0.077l-0.05,0.076l-0.051,0.076l-0.053,0.075l-0.053,0.074l-0.055,0.073l-0.057,0.073l-0.057,0.072l-0.059,0.072l-0.06,0.071l-0.061,0.07l-0.062,0.069l-0.064,0.069l-0.064,0.068l-0.066,0.068l-0.068,0.066l-0.068,0.066l-0.07,0.065l-0.071,0.065l-0.072,0.063l-0.073,0.063l-0.074,0.062l-0.076,0.062l-0.077,0.06l-0.078,0.06l-0.08,0.059l-0.08,0.059l-0.082,0.057l-0.083,0.057l-0.085,0.056l-0.085,0.055l-0.087,0.054l-0.088,0.054l-0.089,0.052l-0.091,0.052l-0.091,0.051l-0.093,0.051l-0.094,0.049l-0.096,0.048l-0.096,0.048l-0.098,0.047l-0.099,0.046l-0.1,0.045l-0.102,0.044l-0.103,0.043l-0.103,0.043l-0.106,0.041l-0.106,0.041l-0.108,0.04l-0.109,0.039l-0.11,0.038l-0.111,0.037l-0.113,0.036l-0.113,0.035l-0.115,0.034l-0.117,0.034l-0.117,0.032l-0.119,0.032l-0.12,0.03l-0.121,0.03l-0.123,0.028l-0.123,0.028l-0.125,0.026l-0.126,0.026l-0.128,0.025l-0.128,0.023l-0.13,0.023l-0.131,0.022l-0.133,0.02l-0.133,0.02l-0.135,0.019l-0.136,0.017l-0.137,0.017l-0.139,0.016l-0.14,0.014l-0.141,0.014l-0.142,0.012l-0.143,0.011l-0.145,0.011l-0.146,0.009l-0.147,0.008l-0.149,0.007l-0.149,0.006l-0.151,0.005l-0.152,0.004l-0.154,0.003l-0.155,0.002l-0.155,0l-0.223,-0.001l-0.221,-0.003l-0.221,-0.005l-0.22,-0.006l-0.219,-0.009l-0.219,-0.011l-0.217,-0.012l-0.218,-0.014l-0.216,-0.016l-0.216,-0.018l-0.214,-0.019l-0.215,-0.021l-0.213,-0.023l-0.212,-0.025l-0.212,-0.026l-0.211,-0.028l-0.211,-0.03l-0.209,-0.031l-0.209,-0.033l-0.208,-0.034l-0.207,-0.036l-0.206,-0.037l-0.205,-0.039l-0.205,-0.04l-0.203,-0.042l-0.203,-0.044l-0.202,-0.044l-0.201,-0.046l-0.201,-0.048l-0.199,-0.048l-0.199,-0.05l-0.197,-0.052l-0.197,-0.052l-0.196,-0.054l-0.195,-0.056l-0.194,-0.056l-0.193,-0.058l-0.192,-0.058l-0.192,-0.06l-0.19,-0.061l-0.189,-0.062l-0.189,-0.064l-0.187,-0.064l-0.187,-0.065l-0.186,-0.067l-0.184,-0.067l-0.184,-0.069l-0.182,-0.069l-0.182,-0.07l-0.181,-0.072l-0.179,-0.072l-0.179,-0.073l-0.178,-0.073l-0.176,-0.075l-0.176,-0.076l-0.174,-0.076l-0.174,-0.077l-0.172,-0.078l-0.172,-0.078l-0.17,-0.08l-0.169,-0.08l-0.168,-0.08l-0.168,-0.081l-0.166,-0.082l-0.164,-0.083l-0.164,-0.083l-0.163,-0.083l-0.162,-0.084l-0.16,-0.085l-0.159,-0.085l-0.159,-0.086l-0.157,-0.086l-0.156,-0.086l-0.154,-0.087l-0.154,-0.087l-0.152,-0.088l-0.152,-0.088l-0.15,-0.088l-0.149,-0.089l-0.147,-0.089l-0.147,-0.089l-0.145,-0.089l-0.144,-0.09l-0.143,-0.09l-0.142,-0.09l-0.141,-0.09l-0.139,-0.09l-0.138,-0.09l-0.136,-0.091l-0.136,-0.09l-0.267,-0.181l-0.262,-0.181l-0.257,-0.181l-0.252,-0.181l-0.246,-0.18l-0.242,-0.179l-0.236,-0.178l-0.23,-0.178l-0.225,-0.176l-0.22,-0.175l-0.214,-0.173l-0.208,-0.172l-0.203,-0.17l-0.197,-0.167l-0.191,-0.166l-0.186,-0.163l-0.179,-0.161l-0.174,-0.157l-0.168,-0.155l-9.725,13.086l0.157,0.139l0.162,0.143l0.169,0.147l0.174,0.15l0.181,0.154l0.186,0.157l0.193,0.16l0.198,0.163l0.205,0.166l0.211,0.168l0.216,0.171l0.224,0.173l0.229,0.176l0.236,0.177l0.242,0.179l0.248,0.18l0.255,0.183l0.261,0.183l0.268,0.185l0.274,0.185l0.281,0.186l0.287,0.187l0.294,0.188l0.301,0.187l0.307,0.188l0.314,0.188l0.321,0.187l0.327,0.188l0.335,0.186l0.169,0.093l0.172,0.093l0.173,0.093l0.175,0.092l0.176,0.092l0.179,0.092l0.18,0.092l0.181,0.091l0.184,0.091l0.185,0.091l0.187,0.09l0.189,0.09l0.191,0.089l0.192,0.089l0.194,0.088l0.196,0.088l0.198,0.088l0.199,0.087l0.201,0.086l0.203,0.086l0.205,0.085l0.207,0.085l0.208,0.084l0.211,0.083l0.212,0.083l0.214,0.082l0.215,0.081l0.218,0.08l0.219,0.08l0.222,0.079l0.223,0.078l0.225,0.078l0.226,0.076l0.229,0.076l0.231,0.075l0.232,0.073l0.234,0.073l0.236,0.072l0.238,0.071l0.24,0.071l0.242,0.069l0.243,0.068l0.246,0.067l0.247,0.066l0.25,0.064l0.251,0.064l0.253,0.063l0.255,0.061l0.257,0.061l0.259,0.059l0.261,0.058l0.263,0.056l0.264,0.056l0.267,0.054l0.269,0.053l0.27,0.051l0.273,0.05l0.274,0.049l0.277,0.048l0.278,0.046l0.28,0.044l0.283,0.043l0.284,0.042l0.286,0.04l0.289,0.039l0.29,0.037l0.292,0.036l0.295,0.034l0.296,0.033l0.298,0.031l-0.351,15.306l14.295,0l-0.352,-15.891l0.165,-0.031l0.163,-0.033l0.164,-0.033l0.162,-0.034l0.162,-0.034l0.161,-0.035l0.161,-0.036l0.16,-0.036l0.159,-0.037l0.159,-0.037l0.158,-0.038l0.157,-0.039l0.157,-0.039l0.156,-0.04l0.155,-0.041l0.155,-0.041l0.154,-0.042l0.154,-0.042l0.153,-0.043l0.152,-0.044l0.151,-0.044l0.151,-0.045l0.151,-0.045l0.149,-0.046l0.149,-0.047l0.149,-0.047l0.147,-0.048l0.147,-0.048l0.147,-0.049l0.146,-0.049l0.145,-0.05l0.144,-0.051l0.144,-0.051l0.143,-0.052l0.143,-0.052l0.142,-0.053l0.141,-0.053l0.141,-0.054l0.14,-0.055l0.139,-0.055l0.139,-0.056l0.138,-0.056l0.137,-0.057l0.137,-0.057l0.136,-0.058l0.136,-0.058l0.135,-0.059l0.134,-0.06l0.133,-0.06l0.133,-0.06l0.132,-0.061l0.132,-0.062l0.131,-0.062l0.13,-0.063l0.13,-0.063l0.129,-0.064l0.129,-0.064l0.127,-0.065l0.127,-0.065l0.127,-0.066l0.251,-0.133l0.248,-0.135l0.246,-0.137l0.244,-0.139l0.24,-0.141l0.238,-0.143l0.236,-0.145l0.233,-0.147l0.23,-0.148l0.228,-0.151l0.226,-0.152l0.222,-0.155l0.22,-0.156l0.218,-0.158l0.215,-0.159l0.212,-0.162l0.21,-0.163l0.207,-0.165l0.205,-0.166l0.202,-0.169l0.2,-0.17l0.197,-0.172l0.194,-0.173l0.192,-0.175l0.189,-0.177l0.187,-0.178l0.184,-0.179l0.181,-0.182l0.179,-0.183l0.177,-0.184l0.173,-0.186l0.172,-0.187l0.168,-0.189l0.166,-0.19l0.164,-0.192l0.161,-0.193l0.158,-0.195l0.156,-0.196l0.153,-0.197l0.151,-0.199l0.148,-0.2l0.145,-0.201l0.143,-0.202l0.14,-0.204l0.138,-0.205l0.135,-0.207l0.133,-0.207l0.13,-0.209l0.127,-0.21l0.125,-0.211l0.122,-0.212l0.12,-0.214l0.117,-0.214l0.115,-0.216l0.112,-0.216l0.109,-0.218l0.107,-0.219l0.104,-0.22l0.102,-0.22l0.099,-0.222l0.097,-0.223l0.094,-0.224l0.091,-0.224l0.089,-0.226l0.086,-0.226l0.084,-0.228l0.081,-0.228l0.078,-0.229l0.076,-0.23l0.074,-0.231l0.071,-0.231l0.068,-0.233l0.065,-0.233l0.064,-0.234l0.06,-0.234l0.058,-0.235l0.055,-0.236l0.053,-0.237l0.05,-0.237l0.048,-0.238l0.045,-0.238l0.042,-0.24l0.04,-0.239l0.038,-0.241l0.034,-0.24l0.033,-0.242l0.029,-0.242l0.027,-0.242l0.025,-0.243l0.022,-0.243l0.019,-0.244l0.017,-0.244l0.014,-0.244l0.011,-0.245l0.009,-0.246l0.007,-0.245l0.004,-0.246l0.001,-0.247l-0.001,-0.259l-0.003,-0.256l-0.006,-0.255l-0.008,-0.252l-0.01,-0.25l-0.012,-0.248l-0.015,-0.246l-0.017,-0.244l-0.019,-0.242l-0.021,-0.239l-0.024,-0.238l-0.026,-0.235l-0.028,-0.234l-0.03,-0.231l-0.033,-0.23l-0.035,-0.227l-0.037,-0.226l-0.04,-0.223l-0.042,-0.222l-0.044,-0.22l-0.046,-0.218l-0.049,-0.217l-0.051,-0.214l-0.053,-0.213l-0.056,-0.211l-0.058,-0.209l-0.06,-0.207l-0.063,-0.206l-0.065,-0.204l-0.067,-0.203l-0.07,-0.2l-0.072,-0.199l-0.074,-0.198l-0.077,-0.196l-0.079,-0.195l-0.081,-0.192l-0.084,-0.192l-0.086,-0.19l-0.088,-0.188l-0.091,-0.187l-0.093,-0.186l-0.095,-0.184l-0.098,-0.183l-0.1,-0.181l-0.103,-0.18l-0.105,-0.179l-0.107,-0.178l-0.11,-0.176l-0.112,-0.175l-0.115,-0.173l-0.117,-0.173l-0.119,-0.171l-0.122,-0.17l-0.124,-0.169l-0.127,-0.168l-0.129,-0.167l-0.131,-0.165l-0.134,-0.165l-0.136,-0.164l-0.139,-0.162l-0.141,-0.162l-0.144,-0.16l-0.146,-0.16l-0.148,-0.158l-0.151,-0.158l-0.153,-0.157l-0.156,-0.156l-0.158,-0.155l-0.161,-0.154l-0.163,-0.153l-0.166,-0.153l-0.168,-0.152l-0.171,-0.151l-0.173,-0.15l-0.175,-0.15l-0.178,-0.149l-0.181,-0.148l-0.183,-0.148l-0.185,-0.147l-0.188,-0.146l-0.191,-0.146l-0.193,-0.145l-0.195,-0.145l-0.198,-0.144l-0.201,-0.144l-0.203,-0.143l-0.205,-0.143l-0.208,-0.142l-0.211,-0.142l-0.213,-0.142l-0.216,-0.141l-0.218,-0.141l-0.221,-0.14l-0.223,-0.14l-0.226,-0.14l-0.228,-0.14l-0.231,-0.139l-0.234,-0.139l-0.236,-0.139l-0.238,-0.139l-0.241,-0.139l-0.244,-0.138l-0.246,-0.139l-0.249,-0.138l-0.252,-0.138l-0.254,-0.138l-0.256,-0.138l-0.26,-0.138l-0.262,-0.138l-0.264,-0.138l-0.267,-0.138l-0.27,-0.139l-0.272,-0.138l-0.275,-0.138l-0.277,-0.139l-0.28,-0.139l-0.283,-0.139l-0.285,-0.139l-0.288,-0.139l-0.291,-0.139l-0.293,-0.14l-0.296,-0.14l-0.298,-0.141l-0.301,-0.14l-0.304,-0.141l-0.307,-0.142l-0.62,-0.284l-5.742,-2.57l-0.344,-0.159l-0.339,-0.157l-0.335,-0.156l-0.33,-0.155l-0.326,-0.154l-0.321,-0.153l-0.316,-0.153l-0.312,-0.152l-0.307,-0.151l-0.302,-0.15l-0.298,-0.15l-0.292,-0.15l-0.288,-0.149l-0.283,-0.149l-0.279,-0.149l-0.273,-0.149l-0.268,-0.148l-0.264,-0.149l-0.258,-0.148l-0.253,-0.149l-0.249,-0.149l-0.243,-0.149l-0.12,-0.075l-0.118,-0.075l-0.117,-0.074l-0.116,-0.075l-0.115,-0.076l-0.113,-0.075l-0.112,-0.075l-0.111,-0.076l-0.109,-0.075l-0.108,-0.076l-0.107,-0.076l-0.105,-0.076l-0.104,-0.077l-0.103,-0.076l-0.102,-0.077l-0.1,-0.077l-0.098,-0.077l-0.098,-0.078l-0.096,-0.077l-0.095,-0.078l-0.093,-0.078l-0.092,-0.079l-0.091,-0.079l-0.089,-0.079l-0.088,-0.079l-0.087,-0.079l-0.085,-0.08l-0.084,-0.081l-0.082,-0.08l-0.081,-0.081l-0.08,-0.081l-0.078,-0.082l-0.077,-0.082l-0.075,-0.082l-0.074,-0.083l-0.073,-0.083l-0.071,-0.083l-0.07,-0.084l-0.069,-0.084l-0.067,-0.085l-0.065,-0.085l-0.064,-0.086l-0.063,-0.086l-0.061,-0.086l-0.06,-0.087l-0.058,-0.088l-0.057,-0.088l-0.056,-0.088l-0.054,-0.089l-0.053,-0.089l-0.051,-0.09l-0.049,-0.091l-0.048,-0.091l-0.047,-0.091l-0.045,-0.092l-0.044,-0.093l-0.042,-0.093l-0.041,-0.094l-0.04,-0.094l-0.037,-0.095l-0.037,-0.096l-0.034,-0.096l-0.034,-0.097l-0.031,-0.097l-0.031,-0.098l-0.028,-0.099l-0.028,-0.099l-0.025,-0.1l-0.025,-0.101l-0.022,-0.102l-0.021,-0.102l-0.02,-0.102l-0.018,-0.104l-0.016,-0.104l-0.015,-0.105l-0.014,-0.106l-0.011,-0.106l-0.011,-0.107l-0.008,-0.108l-0.007,-0.109l-0.006,-0.11l-0.004,-0.11l-0.002,-0.111l-0.001,-0.112l0.001,-0.101l0.001,-0.101l0.003,-0.1l0.004,-0.1l0.005,-0.099l0.007,-0.099l0.007,-0.098l0.009,-0.098l0.01,-0.098l0.011,-0.097l0.012,-0.096l0.013,-0.096l0.015,-0.096l0.015,-0.095l0.017,-0.094l0.018,-0.094l0.019,-0.094l0.02,-0.093l0.021,-0.092l0.023,-0.092l0.023,-0.091l0.025,-0.091l0.026,-0.09l0.027,-0.09l0.028,-0.089l0.03,-0.089l0.03,-0.088l0.032,-0.087l0.032,-0.087l0.034,-0.086l0.035,-0.086l0.036,-0.085l0.038,-0.084l0.038,-0.084l0.04,-0.083l0.04,-0.083l0.042,-0.082l0.043,-0.081l0.044,-0.081l0.046,-0.08l0.046,-0.079l0.048,-0.079l0.048,-0.078l0.05,-0.077l0.051,-0.077l0.052,-0.076l0.053,-0.075l0.054,-0.075l0.056,-0.074l0.056,-0.073l0.058,-0.072l0.059,-0.072l0.06,-0.071l0.061,-0.07l0.062,-0.07l0.063,-0.069l0.064,-0.068l0.066,-0.067l0.066,-0.067l0.068,-0.065l0.069,-0.065l0.07,-0.065l0.071,-0.063l0.072,-0.063l0.074,-0.062l0.074,-0.061l0.076,-0.06l0.076,-0.06l0.078,-0.058l0.079,-0.058l0.08,-0.057l0.081,-0.056l0.082,-0.056l0.084,-0.054l0.084,-0.054l0.086,-0.053l0.086,-0.052l0.088,-0.051l0.089,-0.05l0.09,-0.049l0.091,-0.049l0.092,-0.048l0.094,-0.046l0.094,-0.046l0.096,-0.045l0.096,-0.044l0.098,-0.043l0.099,-0.042l0.1,-0.041l0.101,-0.04l0.102,-0.04l0.103,-0.038l0.104,-0.038l0.106,-0.036l0.106,-0.036l0.108,-0.034l0.108,-0.034l0.11,-0.032l0.111,-0.032l0.112,-0.031l0.113,-0.029l0.114,-0.029l0.115,-0.027l0.117,-0.027l0.117,-0.026l0.119,-0.024l0.119,-0.024l0.121,-0.022l0.122,-0.022l0.122,-0.02l0.124,-0.019l0.125,-0.019l0.127,-0.017l0.127,-0.016l0.128,-0.015l0.129,-0.014l0.131,-0.013l0.131,-0.012l0.133,-0.011l0.133,-0.009l0.135,-0.009l0.136,-0.007l0.137,-0.006l0.138,-0.005l0.139,-0.004l0.14,-0.003l0.141,-0.002l0.143,-0.001l0.306,0.003l0.305,0.007l0.303,0.012l0.301,0.016l0.299,0.021l0.297,0.025l0.295,0.03l0.293,0.034l0.291,0.038l0.289,0.042l0.287,0.046l0.285,0.051l0.283,0.054l0.28,0.058l0.279,0.062l0.277,0.065l0.275,0.07l0.272,0.073l0.27,0.076l0.269,0.08l0.266,0.083l0.263,0.086l0.262,0.09l0.26,0.092l0.257,0.096l0.255,0.099l0.253,0.101l0.25,0.105l0.249,0.107l0.246,0.11l0.244,0.113l0.241,0.115l0.239,0.117l0.237,0.12l0.234,0.123l0.233,0.124l0.229,0.127l0.228,0.129l0.225,0.131l0.222,0.133l0.22,0.135l0.218,0.137l0.215,0.138l0.213,0.14l0.21,0.142l0.208,0.143l0.205,0.145l0.203,0.146l0.2,0.148l0.198,0.149l0.195,0.149l0.193,0.152l0.19,0.152l0.187,0.153l0.185,0.154l0.182,0.154l0.179,0.156l0.177,0.156l0.174,0.157l0.172,0.157l0.169,0.158l0.166,0.158l0.163,0.159l0.161,0.158l10.194,-12.034l-0.047,-0.064l-0.054,-0.07l-0.06,-0.076l-0.066,-0.083l-0.073,-0.088l-0.08,-0.094l-0.086,-0.099l-0.092,-0.105l-0.099,-0.11l-0.106,-0.115l-0.113,-0.12l-0.12,-0.124l-0.126,-0.128l-0.133,-0.133l-0.14,-0.136l-0.147,-0.14l-0.154,-0.144l-0.16,-0.147l-0.168,-0.151l-0.175,-0.153l-0.182,-0.156l-0.189,-0.159l-0.197,-0.161l-0.203,-0.163l-0.105,-0.082l-0.106,-0.083l-0.108,-0.083l-0.11,-0.084l-0.112,-0.084l-0.114,-0.085l-0.115,-0.084l-0.117,-0.086l-0.119,-0.085l-0.122,-0.086l-0.122,-0.086l-0.125,-0.086l-0.127,-0.086l-0.128,-0.087l-0.131,-0.087l-0.132,-0.087l-0.134,-0.087l-0.136,-0.087l-0.138,-0.087l-0.14,-0.087l-0.142,-0.087l-0.143,-0.087l-0.146,-0.088l-0.147,-0.087l-0.15,-0.087l-0.151,-0.086l-0.153,-0.087l-0.155,-0.087l-0.158,-0.086l-0.159,-0.086l-0.161,-0.086l-0.163,-0.086l-0.165,-0.085l-0.167,-0.085l-0.169,-0.085l-0.171,-0.085l-0.172,-0.084l-0.175,-0.083l-0.177,-0.083l-0.179,-0.083l-0.181,-0.082l-0.183,-0.082l-0.185,-0.081l-0.186,-0.081l-0.189,-0.08l-0.191,-0.079l-0.193,-0.079l-0.195,-0.079l-0.197,-0.077l-0.199,-0.077l-0.201,-0.076l-0.204,-0.075l-0.205,-0.075l-0.207,-0.074l-0.21,-0.073l-0.211,-0.072l-0.213,-0.071l-0.216,-0.071l-0.218,-0.069l-0.22,-0.068l-0.221,-0.068l-0.224,-0.067l-0.226,-0.065l-0.229,-0.065l-0.23,-0.063l-0.232,-0.062l-0.235,-0.062l-0.236,-0.06l-0.239,-0.059l-0.241,-0.057l-0.243,-0.057l-0.245,-0.055l-0.248,-0.054l-0.249,-0.053l-0.252,-0.051l-0.254,-0.051l-0.256,-0.048l-0.258,-0.048l-0.26,-0.046l-0.263,-0.044l0.352,-14.956l-14.295,0Z" style="fill:#fff;"/></g><path d="M270.014,171.97c-16.583,-2.627 -33.477,-2.627 -50.06,0c-3.387,8.297 -5.627,16.893 -6.719,25.788c-13.876,3.331 -27.143,8.826 -39.311,16.283c-7.062,-5.518 -14.724,-10.012 -22.986,-13.484c-13.583,9.869 -25.528,21.814 -35.397,35.397c3.472,8.262 7.966,15.924 13.484,22.986c-7.457,12.168 -12.952,25.435 -16.283,39.311c-8.895,1.092 -17.491,3.332 -25.788,6.719c-2.627,16.583 -2.627,33.477 0,50.06c8.297,3.387 16.893,5.627 25.788,6.719c3.331,13.876 8.826,27.143 16.283,39.311c-5.518,7.062 -10.012,14.724 -13.484,22.986c9.869,13.583 21.814,25.528 35.397,35.397c8.262,-3.472 15.924,-7.966 22.986,-13.484c12.168,7.457 25.435,12.952 39.311,16.283c1.092,8.895 3.332,17.491 6.719,25.788c16.583,2.627 33.477,2.627 50.06,0c3.387,-8.297 5.627,-16.893 6.719,-25.788c13.876,-3.331 27.143,-8.826 39.311,-16.283c7.062,5.518 14.724,10.012 22.986,13.484c13.583,-9.869 25.528,-21.814 35.397,-35.397c-3.472,-8.262 -7.966,-15.924 -13.484,-22.986c7.457,-12.168 12.952,-25.435 16.283,-39.311c8.895,-1.092 17.491,-3.332 25.788,-6.719c2.627,-16.583 2.627,-33.477 0,-50.06c-8.297,-3.387 -16.893,-5.627 -25.788,-6.719c-3.331,-13.876 -8.826,-27.143 -16.283,-39.311c5.518,-7.062 10.012,-14.724 13.484,-22.986c-9.869,-13.583 -21.814,-25.528 -35.397,-35.397c-8.262,3.472 -15.924,7.966 -22.986,13.484c-12.168,-7.457 -25.435,-12.952 -39.311,-16.283c-1.092,-8.895 -3.332,-17.491 -6.719,-25.788Zm-25.03,54.03c57.399,0 104,46.601 104,104c0,57.399 -46.601,104 -104,104c-57.399,0 -104,-46.601 -104,-104c0,-57.399 46.601,-104 104,-104Z" style="fill:#697584;"/><text x="454.02px" y="358.032px" style="font-family:'Lato-Black', 'Lato', sans-serif;font-weight:900;font-size:96px;fill:#fff;">T<tspan x="501.924px 557.604px " y="358.032px 358.032px ">ot</tspan>al Econom<tspan x="1042.31px " y="358.032px ">y</tspan></text><defs><linearGradient id="_Linear1" x1="0" y1="0" x2="1" y2="0" gradientUnits="userSpaceOnUse" gradientTransform="matrix(1180,660,-660,1180,0,0)"><stop offset="0" style="stop-color:#ffcd29;stop-opacity:1"/><stop offset="1" style="stop-color:#efeb6c;stop-opacity:1"/></linearGradient></defs></svg>